<?xml version="1.0" encoding="utf-8"?>
<!-- Generator: Adobe Illustrator 27.5.0, SVG Export Plug-In . SVG Version: 6.00 Build 0)  -->
<svg version="1.1" xmlns="http://www.w3.org/2000/svg" xmlns:xlink="http://www.w3.org/1999/xlink" x="0px" y="0px"
	 viewBox="0 0 500 500" style="enable-background:new 0 0 500 500;" xml:space="preserve">
<g id="Layer_2">
	<path style="opacity:0.18;fill:#94C8E3;" d="M267.473,36.604c57.146-1.401,109.32,22.13,138.946,61.016
		c59.566,78.184,70.604,156.306,30.636,197.368c-8.334,8.563-32.139,29.129-67.357,36.491
		c-56.805,11.875-81.51-23.518-128.467-14.406c-62.14,12.058-68.748,83.719-110.51,85.866
		c-39.853,2.049-83.484-60.66-89.923-119.857c-11.147-102.479,85-232.715,211.255-245.51
		C257.278,37.043,262.421,36.728,267.473,36.604z"/>
	<g>
		<g>
			<polygon style="fill:#ABBAC2;" points="151.094,125.999 151.572,128.965 151.499,128.973 			"/>
			<path style="fill:#ABBAC2;" d="M151.919,135.101c-0.028,2.053-0.201,4.107-0.52,6.139l-0.367-0.062
				c0.365-2.006,0.587-4.041,0.665-6.082L151.919,135.101z"/>
			<path style="fill:#ABBAC2;" d="M150.001,147.249c-0.62,1.964-1.383,3.885-2.285,5.739l-0.535-0.265
				c0.914-1.815,1.693-3.7,2.332-5.632L150.001,147.249z"/>
			<path style="fill:#ABBAC2;" d="M144.6,158.33c-1.173,1.699-2.479,3.308-3.908,4.802l-0.549-0.533
				c1.42-1.445,2.724-3.007,3.9-4.661L144.6,158.33z"/>
			<path style="fill:#ABBAC2;" d="M136.05,167.243c-1.665,1.231-3.438,2.319-5.296,3.239l-0.386-0.783
				c1.815-0.889,3.549-1.942,5.181-3.137L136.05,167.243z"/>
			<path style="fill:#ABBAC2;" d="M124.958,172.72c-1.999,0.562-4.045,0.936-6.104,1.154l-0.096-0.924
				c2.013-0.204,4.011-0.56,5.957-1.098L124.958,172.72z"/>
			<path style="fill:#ABBAC2;" d="M112.657,174.08c-2.067-0.073-4.127-0.281-6.168-0.617l0.162-0.971
				c1.997,0.338,4.017,0.551,6.041,0.632L112.657,174.08z"/>
			<path style="fill:#ABBAC2;" d="M100.45,172.045c-1.977-0.616-3.916-1.368-5.771-2.313l0.434-0.855
				c1.799,0.906,3.693,1.632,5.627,2.224L100.45,172.045z"/>
			<path style="fill:#ABBAC2;" d="M89.543,166.133c-0.738-0.763-1.407-1.632-1.833-2.656c-0.446-1.025-0.507-2.201-0.344-3.254
				l0.894,0.128c-0.139,0.965-0.081,1.91,0.296,2.774c0.366,0.871,0.967,1.656,1.652,2.357L89.543,166.133z"/>
			<path style="fill:#ABBAC2;" d="M90.387,154.632c0.466-0.322,1.092-0.569,1.727-0.496c0.623,0.057,1.161,0.326,1.619,0.652
				c0.915,0.666,1.574,1.589,1.962,2.636l-0.798,0.283c-0.323-0.869-0.914-1.684-1.664-2.217c-0.372-0.265-0.79-0.457-1.194-0.489
				c-0.396-0.046-0.788,0.102-1.159,0.354L90.387,154.632z"/>
			<path style="fill:#ABBAC2;" d="M94.34,163.566c-1.182,1.746-2.705,3.218-4.415,4.415l-0.394-0.559
				c1.626-1.171,3.075-2.616,4.167-4.279L94.34,163.566z"/>
			<path style="fill:#ABBAC2;" d="M84.14,170.297c-2.092,0.238-4.2-0.083-6.171-0.716l0.154-0.491
				c1.926,0.59,3.962,0.866,5.945,0.612L84.14,170.297z"/>
			<path style="fill:#ABBAC2;" d="M72.418,166.853c-1.723-1.13-3.322-2.436-4.806-3.853l0.153-0.164
				c1.51,1.372,3.127,2.627,4.854,3.701L72.418,166.853z"/>
			<polygon style="fill:#ABBAC2;" points="63.5,158.442 61.723,156.022 63.557,158.396 			"/>
		</g>
	</g>
	<g>
		<g>
			<polygon style="fill:#ABBAC2;" points="395.151,65.445 397.946,66.546 397.916,66.613 			"/>
			<path style="fill:#ABBAC2;" d="M403.4,69.378c1.752,1.072,3.429,2.268,5.014,3.58l-0.241,0.284
				c-1.539-1.338-3.176-2.567-4.892-3.675L403.4,69.378z"/>
			<path style="fill:#ABBAC2;" d="M412.869,77.227c1.373,1.535,2.636,3.171,3.77,4.893l-0.501,0.325
				c-1.095-1.712-2.318-3.344-3.654-4.879L412.869,77.227z"/>
			<path style="fill:#ABBAC2;" d="M419.643,87.525c0.862,1.876,1.58,3.82,2.136,5.812l-0.738,0.201
				c-0.518-1.959-1.196-3.877-2.018-5.732L419.643,87.525z"/>
			<path style="fill:#ABBAC2;" d="M422.947,99.427c0.209,2.06,0.24,4.14,0.083,6.208l-0.871-0.068
				c0.161-2.014,0.14-4.044-0.054-6.057L422.947,99.427z"/>
			<path style="fill:#ABBAC2;" d="M421.997,111.76c-0.537,2.005-1.259,3.956-2.122,5.838l-0.844-0.389
				c0.852-1.835,1.565-3.735,2.096-5.684L421.997,111.76z"/>
			<path style="fill:#ABBAC2;" d="M416.89,123.034c-1.117,1.74-2.348,3.406-3.678,4.989l-0.753-0.635
				c1.31-1.545,2.524-3.174,3.626-4.873L416.89,123.034z"/>
			<path style="fill:#ABBAC2;" d="M408.911,132.494c-1.538,1.386-3.175,2.67-4.934,3.783l-0.514-0.81
				c1.697-1.085,3.288-2.343,4.784-3.704L408.911,132.494z"/>
			<path style="fill:#ABBAC2;" d="M398.262,138.858c-1.033,0.245-2.121,0.377-3.219,0.222c-1.109-0.139-2.152-0.687-2.974-1.365
				l0.566-0.704c0.76,0.612,1.601,1.045,2.537,1.161c0.935,0.13,1.917,0.014,2.87-0.218L398.262,138.858z"/>
			<path style="fill:#ABBAC2;" d="M388.801,132.264c-0.039-0.566,0.068-1.23,0.454-1.738c0.367-0.507,0.873-0.832,1.387-1.06
				c1.039-0.447,2.169-0.543,3.268-0.343l-0.164,0.831c-0.912-0.166-1.914-0.073-2.756,0.299c-0.418,0.185-0.797,0.446-1.03,0.778
				c-0.242,0.317-0.315,0.73-0.287,1.178L388.801,132.264z"/>
			<path style="fill:#ABBAC2;" d="M398.502,133.423c0.898,1.908,1.387,3.969,1.544,6.049l-0.682,0.053
				c-0.177-1.996-0.681-3.98-1.554-5.767L398.502,133.423z"/>
			<path style="fill:#ABBAC2;" d="M399.086,145.63c-0.863,1.921-2.215,3.57-3.765,4.942l-0.343-0.383
				c1.49-1.356,2.767-2.966,3.56-4.8L399.086,145.63z"/>
			<path style="fill:#ABBAC2;" d="M390.143,153.954c-1.851,0.905-3.79,1.613-5.766,2.167l-0.063-0.215
				c1.951-0.598,3.855-1.348,5.66-2.286L390.143,153.954z"/>
			<polygon style="fill:#ABBAC2;" points="378.359,157.331 375.372,157.625 378.349,157.259 			"/>
		</g>
	</g>
</g>
<g id="Layer_1">
	<g>
		<path style="fill:#FFFFFF;" d="M140.19,90.265c0,0-19.134,71.107-17.154,74.433c1.981,3.326,48.841,20.222,64.044,8.097
			c0,0-1.147-11.111,0.409-20.031c1.556-8.92,11.775-52.062,11.775-52.062L140.19,90.265z"/>
		<g>
			<path style="fill:#ABBAC2;" d="M176.82,174.304c1.539-1.291,2.958-2.592,4.221-4.05c0.643-0.715,1.239-1.473,1.8-2.262
				c0.582-0.78,1.072-1.619,1.641-2.461c-0.179,0.99-0.493,1.971-0.974,2.866c-0.451,0.914-1.05,1.749-1.717,2.517
				c-0.677,0.761-1.43,1.454-2.267,2.03C178.695,173.525,177.795,174.02,176.82,174.304z"/>
		</g>
		<g>
			<g>
				<path style="fill:#ABBAC2;" d="M145.401,102.367l5.283,1.068l5.268,1.11l10.534,2.194c3.508,0.742,7.028,1.413,10.549,2.075
					c3.525,0.642,7.057,1.244,10.638,1.554c-0.897,0.004-1.799,0.013-2.699-0.016l-2.697-0.155c-1.79-0.182-3.581-0.374-5.363-0.624
					c-3.567-0.486-7.107-1.134-10.629-1.856c-3.518-0.74-7.027-1.522-10.506-2.427C152.297,104.397,148.827,103.459,145.401,102.367
					z"/>
			</g>
			<g>
				<path style="fill:#ABBAC2;" d="M144.155,110.661l5.283,1.068l5.268,1.11l10.534,2.194c3.508,0.742,7.028,1.413,10.549,2.075
					c3.525,0.642,7.057,1.244,10.638,1.554c-0.897,0.004-1.799,0.013-2.699-0.016l-2.697-0.155c-1.79-0.182-3.581-0.374-5.363-0.624
					c-3.567-0.486-7.107-1.134-10.629-1.856c-3.518-0.74-7.027-1.522-10.506-2.427C151.052,112.691,147.582,111.753,144.155,110.661
					z"/>
			</g>
			<g>
				<path style="fill:#ABBAC2;" d="M142.91,118.955l5.283,1.068l5.268,1.11l10.534,2.194c3.508,0.742,7.028,1.413,10.549,2.075
					c3.525,0.642,7.057,1.244,10.638,1.554c-0.897,0.004-1.799,0.013-2.699-0.016l-2.697-0.155c-1.79-0.182-3.581-0.374-5.363-0.624
					c-3.567-0.486-7.107-1.134-10.629-1.856c-3.518-0.74-7.027-1.522-10.506-2.427C149.807,120.985,146.337,120.047,142.91,118.955z
					"/>
			</g>
			<g>
				<path style="fill:#ABBAC2;" d="M141.665,127.249l5.283,1.068l5.268,1.11l10.534,2.194c3.508,0.742,7.028,1.413,10.549,2.075
					c3.525,0.642,7.057,1.244,10.638,1.554c-0.897,0.004-1.799,0.013-2.699-0.016l-2.697-0.155c-1.79-0.182-3.581-0.374-5.363-0.624
					c-3.567-0.486-7.107-1.134-10.629-1.856c-3.518-0.74-7.027-1.522-10.506-2.427C148.561,129.279,145.091,128.341,141.665,127.249
					z"/>
			</g>
			<g>
				<path style="fill:#ABBAC2;" d="M140.419,135.543l5.283,1.068l5.268,1.11l10.534,2.194c3.508,0.742,7.028,1.413,10.549,2.075
					c3.525,0.642,7.057,1.244,10.638,1.554c-0.897,0.004-1.799,0.013-2.699-0.016l-2.697-0.155c-1.79-0.182-3.581-0.374-5.363-0.624
					c-3.567-0.486-7.107-1.134-10.629-1.856c-3.518-0.74-7.027-1.522-10.506-2.427C147.316,137.573,143.846,136.635,140.419,135.543
					z"/>
			</g>
			<g>
				<path style="fill:#ABBAC2;" d="M139.174,143.837l5.283,1.068l5.268,1.11l10.534,2.194c3.508,0.742,7.028,1.413,10.549,2.075
					c3.525,0.642,7.057,1.244,10.638,1.554c-0.897,0.004-1.799,0.013-2.699-0.016l-2.697-0.155c-1.79-0.182-3.581-0.374-5.363-0.624
					c-3.567-0.486-7.107-1.134-10.629-1.856c-3.518-0.74-7.027-1.522-10.506-2.427C146.07,145.867,142.601,144.929,139.174,143.837z
					"/>
			</g>
			<g>
				<path style="fill:#ABBAC2;" d="M137.928,152.131l5.283,1.067l5.268,1.11l10.534,2.194c3.508,0.742,7.028,1.413,10.549,2.075
					c3.525,0.642,7.057,1.244,10.638,1.554c-0.897,0.004-1.799,0.013-2.699-0.016l-2.697-0.155c-1.79-0.182-3.581-0.374-5.363-0.624
					c-3.567-0.486-7.107-1.134-10.629-1.856c-3.518-0.74-7.027-1.522-10.506-2.427C144.825,154.161,141.355,153.223,137.928,152.131
					z"/>
			</g>
		</g>
	</g>
	<g>
		<path style="fill:#7FC991;" d="M402.618,263.33c0,0,18.771-17.096,16.246-25.628c-2.525-8.531,1.795-17.98-4.03-28.271
			c-5.825-10.291-8.475-8.546-22.168-11.024c-13.693-2.477-15.803-9.936-27.936-0.606c-11.895,9.148-9.321,14.862,5.709,16.205
			c8.997,0.804,20.071-1.793,21.105,14.558C392.811,248.59,402.618,263.33,402.618,263.33z"/>
		<path style="fill:#7FC991;" d="M410.435,300.276c-4.543-3.332,1.176-16.365,9.922-22.612c6.042-4.315,11.14,0.525,19.833-4.984
			c6.14-3.892,6.315-8.029,10.868-8.476c5.378-0.528,6.775,5.087,14.924,7.749c7.844,2.563,10.321-1.408,15.051,1.218
			c8.676,4.815,12.845,25.109,6.567,30.426c-3.841,3.254-10.917-8.754-20.435-6.051c-4.743,1.347-5.025,4.762-9.678,5.376
			c-6.516,0.86-9.041-5.432-15.558-7.335C429.335,291.909,415.514,304.001,410.435,300.276z"/>
		<g>
			<path style="fill:#40635B;" d="M367.063,387.407c3.566-12.092,7.648-24.039,12.274-35.777c2.269-5.887,4.774-11.682,7.386-17.427
				c2.605-5.749,5.435-11.402,8.539-16.91c3.148-5.469,6.553-10.863,10.818-15.578l3.236-3.478c1.109-1.13,2.309-2.168,3.459-3.256
				c0.591-0.527,1.141-1.101,1.765-1.589l1.86-1.48c1.243-0.983,2.468-1.987,3.81-2.835c5.191-3.625,10.869-6.569,16.863-8.598
				c5.992-1.975,12.297-3.243,18.61-2.957c-6.314-0.122-12.555,1.306-18.449,3.419c-5.914,2.108-11.498,5.101-16.582,8.765
				c-1.314,0.857-2.513,1.871-3.728,2.86l-1.83,1.475c-0.615,0.486-1.157,1.057-1.738,1.581c-1.133,1.083-2.316,2.115-3.408,3.238
				l-3.187,3.459c-4.181,4.663-7.523,10.018-10.631,15.469c-3.11,5.458-5.957,11.076-8.582,16.795
				c-2.645,5.711-5.123,11.5-7.5,17.332c-2.381,5.83-4.649,11.708-6.791,17.632C371.079,375.458,368.997,381.407,367.063,387.407z"
				/>
		</g>
		<g>
			<path style="fill:#40635B;" d="M379.348,340.953c2.896-10.426,5.917-20.815,8.965-31.197l9.252-31.109
				c3.126-10.355,6.231-20.718,9.075-31.146c1.403-5.215,2.757-10.456,3.612-15.78c0.422-2.657,0.718-5.353,0.516-8.035
				c-0.132-1.334-0.405-2.661-0.929-3.898c-0.514-1.241-1.301-2.365-2.243-3.334c0.978,0.933,1.813,2.033,2.382,3.273
				c0.569,1.239,0.883,2.581,1.055,3.932c0.28,2.715,0.055,5.445-0.295,8.133c-0.762,5.378-2.038,10.653-3.353,15.904
				c-2.696,10.491-5.811,20.856-8.862,31.237l-9.476,31.044C385.846,320.312,382.64,330.645,379.348,340.953z"/>
		</g>
		<path style="fill:#7FC991;" d="M383.418,349.648c0,0,0.845-21.188,7.747-23.93c6.902-2.742,10.876-10.451,20.634-11.936
			c9.759-1.484,9.98,1.155,18.668,8.865c8.688,7.71,14.672,5.248,14.805,18.023c0.13,12.525-4.948,13.783-13.581,4.611
			c-5.168-5.491-9.174-14.099-20.44-6.345C397.456,348.433,383.418,349.648,383.418,349.648z"/>
		<g>
			<path style="fill:#40635B;" d="M369.78,388.066c1.345-5.973,2.984-11.883,4.913-17.702c1.928-5.82,4.201-11.53,6.813-17.089
				c2.689-5.516,5.72-10.901,9.448-15.801c0.889-1.256,1.927-2.397,2.928-3.563c0.965-1.199,2.118-2.23,3.197-3.322
				c0.277-0.266,0.546-0.54,0.831-0.798l0.896-0.727l1.789-1.451c1.211-0.941,2.554-1.704,3.826-2.546l-1.847,1.363
				c-0.603,0.469-1.269,0.851-1.814,1.391l-1.704,1.526l-0.85,0.761c-0.269,0.269-0.522,0.555-0.784,0.831
				c-1.032,1.12-2.142,2.164-3.061,3.384c-0.956,1.184-1.946,2.339-2.79,3.61c-3.558,4.938-6.564,10.262-9.164,15.773
				c-2.668,5.483-4.914,11.166-6.99,16.908l-1.514,4.325l-1.423,4.358l-1.379,4.375L369.78,388.066z"/>
		</g>
	</g>
	<g>
		<g>
			<rect x="239.58" y="93.912" style="fill:#94C8E3;" width="31.932" height="27.831"/>
			<path style="fill:#4C649E;" d="M276.834,109.732h-42.576V81.038l0,0c13.594-3.926,28.982-3.926,42.576,0l0,0V109.732z"/>
		</g>
		<g>
			<path style="fill:#94C8E3;" d="M236.944,82.78c1.506,0.407,3.025,0.727,4.558,0.969c1.527,0.265,3.062,0.479,4.605,0.613
				c3.082,0.288,6.173,0.419,9.266,0.385c1.545-0.06,3.093-0.057,4.635-0.199l2.316-0.16c0.769-0.09,1.539-0.167,2.311-0.239
				c3.086-0.314,6.142-0.858,9.222-1.368c-1.494,0.441-2.999,0.864-4.515,1.242c-1.532,0.295-3.053,0.681-4.604,0.889
				c-3.085,0.544-6.221,0.735-9.352,0.835c-3.134,0.01-6.274-0.15-9.374-0.624C242.919,84.647,239.833,83.979,236.944,82.78z"/>
		</g>
		<g>
			<g>
				<path style="fill:#94C8E3;" d="M236.955,87.928c0.24,3.207,0.284,6.387,0.397,9.562c0.037,1.588,0.107,3.173,0.192,4.755
					c0.107,1.58,0.181,3.165,0.461,4.748c-0.655-1.477-0.999-3.078-1.238-4.667c-0.247-1.594-0.36-3.2-0.415-4.804
					C236.271,94.313,236.409,91.101,236.955,87.928z"/>
			</g>
			<g>
				<path style="fill:#94C8E3;" d="M242.694,89.009c0.363,3.013,0.458,6.016,0.545,9.016l0.071,4.497l0.043,2.245
					c0.033,0.744,0.018,1.502,0.234,2.225c-0.718-1.366-0.862-2.934-1.056-4.421c-0.174-1.506-0.249-3.015-0.292-4.523
					C242.184,95.032,242.27,92.015,242.694,89.009z"/>
			</g>
			<g>
				<path style="fill:#94C8E3;" d="M249.167,90.041c0.262,2.691,0.319,5.353,0.436,8.011c0.039,1.329,0.105,2.654,0.183,3.978
					c0.097,1.322,0.162,2.647,0.399,3.977c-0.61-1.215-0.945-2.555-1.174-3.886c-0.239-1.335-0.349-2.685-0.406-4.031
					C248.518,95.396,248.644,92.698,249.167,90.041z"/>
			</g>
			<g>
				<path style="fill:#94C8E3;" d="M273.352,87.928c0.546,3.173,0.684,6.385,0.602,9.594c-0.055,1.604-0.168,3.211-0.415,4.804
					c-0.238,1.589-0.582,3.19-1.237,4.667c0.28-1.583,0.354-3.167,0.461-4.748c0.086-1.582,0.155-3.167,0.192-4.755
					C273.069,94.314,273.112,91.135,273.352,87.928z"/>
			</g>
			<g>
				<path style="fill:#94C8E3;" d="M267.614,89.009c0.424,3.006,0.509,6.023,0.454,9.04c-0.042,1.508-0.118,3.018-0.292,4.523
					c-0.194,1.486-0.338,3.055-1.056,4.421c0.216-0.723,0.201-1.481,0.234-2.225l0.043-2.245l0.071-4.497
					C267.156,95.024,267.251,92.021,267.614,89.009z"/>
			</g>
			<g>
				<path style="fill:#94C8E3;" d="M261.14,90.041c0.524,2.657,0.649,5.355,0.563,8.049c-0.057,1.346-0.167,2.695-0.406,4.031
					c-0.229,1.331-0.564,2.67-1.174,3.886c0.237-1.33,0.302-2.655,0.399-3.977c0.078-1.323,0.143-2.649,0.183-3.978
					C260.821,95.395,260.878,92.733,261.14,90.041z"/>
			</g>
			<g>
				<path style="fill:#94C8E3;" d="M255.247,90.041c0.417,2.66,0.516,5.326,0.513,7.992c-0.018,1.333-0.055,2.667-0.169,4
					c-0.112,1.328-0.249,2.677-0.641,3.973c0.005-1.339-0.12-2.663-0.139-3.993c-0.045-1.329-0.05-2.658-0.05-3.987
					C254.795,95.367,254.878,92.707,255.247,90.041z"/>
			</g>
		</g>
	</g>
	<ellipse style="opacity:0.11;fill:#344C82;" cx="261.653" cy="406.225" rx="124.792" ry="2.526"/>
	<g>
		<circle style="fill:#F3F8FA;" cx="258.014" cy="261.299" r="128.218"/>
		<circle style="fill:#FFFFFF;" cx="286.32" cy="206.87" r="48.387"/>
		<path style="fill:#4C649E;" d="M144.398,338.964c0,0-22.673,65.329-15.786,67.199c6.887,1.871,56.083-39.492,56.083-39.492
			L144.398,338.964z"/>
		<path style="fill:#4C649E;" d="M370.806,338.964c0,0,22.673,65.329,15.786,67.199c-6.887,1.871-56.083-39.492-56.083-39.492
			L370.806,338.964z"/>
		<path style="fill:#4C649E;" d="M258.014,117.676c-79.321,0-143.623,64.302-143.623,143.623
			c0,79.32,64.302,143.623,143.623,143.623s143.623-64.302,143.623-143.623C401.637,181.978,337.335,117.676,258.014,117.676z
			 M258.014,389.517c-70.813,0-128.218-57.405-128.218-128.218c0-70.813,57.405-128.218,128.218-128.218
			s128.218,57.405,128.218,128.218C386.232,332.112,328.827,389.517,258.014,389.517z"/>
		<polygon style="opacity:0.23;fill:#94C8E3;" points="253.019,267.34 261.53,267.34 257.274,191.805 		"/>
		<polygon style="fill:#94C8E3;" points="251.759,265.608 260.27,265.608 256.014,190.073 		"/>
		<polygon style="opacity:0.23;fill:#94C8E3;" points="253.278,265.155 259.717,270.72 321.883,192.271 		"/>
		<polygon style="fill:#94C8E3;" points="252.018,263.423 258.457,268.988 320.623,190.539 		"/>
		<circle style="opacity:0.23;fill:#94C8E3;" cx="256.014" cy="263.328" r="10.639"/>
		<circle style="opacity:0.23;fill:#94C8E3;" cx="256.014" cy="267.368" r="10.639"/>
		<circle style="fill:#94C8E3;" cx="256.014" cy="265.608" r="10.639"/>
		<path style="opacity:0.23;fill:#94C8E3;" d="M251.27,268.842c0.828,2.731,3.815,4.076,6.12,3.42c3.178-0.904,4.653-5.498,2.7-8.1
			c-1.253-1.67-3.801-2.363-5.94-1.44C251.854,263.713,250.516,266.356,251.27,268.842z"/>
		<g>
			<g>
				<path style="fill:#94C8E3;" d="M258.014,139.751c0.621,1.021,0.943,2.043,1.175,3.064c0.22,1.021,0.322,2.043,0.324,3.064
					c0.002,1.021-0.1,2.043-0.32,3.064c-0.232,1.021-0.555,2.043-1.18,3.064c-0.625-1.021-0.948-2.043-1.179-3.064
					c-0.22-1.021-0.322-2.043-0.32-3.064c0.002-1.021,0.104-2.043,0.324-3.064C257.071,141.794,257.394,140.773,258.014,139.751z"/>
			</g>
			<g>
				<path style="fill:#94C8E3;" d="M197.24,156.036c1.048,0.574,1.838,1.298,2.55,2.066c0.701,0.774,1.301,1.608,1.813,2.491
					c0.513,0.883,0.935,1.819,1.255,2.814c0.31,1,0.541,2.046,0.51,3.243c-1.052-0.572-1.842-1.295-2.553-2.064
					c-0.701-0.775-1.301-1.608-1.809-2.493c-0.509-0.885-0.931-1.821-1.251-2.816C197.445,158.276,197.214,157.23,197.24,156.036z"
					/>
			</g>
			<g>
				<path style="fill:#94C8E3;" d="M152.751,200.525c1.195-0.027,2.24,0.205,3.241,0.514c0.994,0.32,1.93,0.742,2.815,1.251
					c0.886,0.509,1.719,1.108,2.493,1.809c0.769,0.711,1.492,1.502,2.064,2.553c-1.197,0.03-2.243-0.2-3.243-0.511
					c-0.994-0.32-1.93-0.742-2.813-1.255c-0.884-0.512-1.717-1.111-2.491-1.813C154.048,202.363,153.325,201.573,152.751,200.525z"
					/>
			</g>
			<g>
				<path style="fill:#94C8E3;" d="M136.467,261.299c1.021-0.621,2.043-0.943,3.064-1.175c1.021-0.22,2.043-0.322,3.064-0.324
					c1.021-0.002,2.043,0.1,3.064,0.32c1.021,0.232,2.043,0.555,3.064,1.18c-1.021,0.625-2.043,0.948-3.064,1.179
					c-1.021,0.22-2.043,0.323-3.064,0.32c-1.021-0.002-2.043-0.104-3.064-0.324C138.509,262.242,137.488,261.92,136.467,261.299z"/>
			</g>
			<g>
				<path style="fill:#94C8E3;" d="M152.751,322.073c0.574-1.048,1.297-1.838,2.066-2.55c0.774-0.701,1.608-1.301,2.491-1.813
					c0.883-0.513,1.819-0.935,2.813-1.255c1-0.31,2.046-0.541,3.243-0.511c-0.572,1.052-1.295,1.842-2.064,2.553
					c-0.775,0.701-1.608,1.301-2.493,1.809c-0.885,0.509-1.821,0.931-2.815,1.251C154.992,321.868,153.946,322.1,152.751,322.073z"
					/>
			</g>
			<g>
				<path style="fill:#94C8E3;" d="M197.24,366.562c-0.027-1.195,0.205-2.24,0.514-3.241c0.32-0.995,0.742-1.93,1.251-2.816
					c0.509-0.886,1.108-1.719,1.809-2.493c0.711-0.769,1.502-1.492,2.553-2.064c0.03,1.197-0.2,2.243-0.51,3.243
					c-0.32,0.994-0.742,1.93-1.255,2.814c-0.512,0.884-1.111,1.717-1.813,2.491C199.078,365.265,198.289,365.988,197.24,366.562z"/>
			</g>
			<g>
				<path style="fill:#94C8E3;" d="M258.014,382.846c-0.621-1.021-0.943-2.043-1.175-3.064c-0.22-1.021-0.322-2.043-0.324-3.064
					c-0.002-1.021,0.1-2.043,0.32-3.064c0.231-1.021,0.555-2.043,1.179-3.064c0.625,1.021,0.948,2.043,1.18,3.064
					c0.22,1.021,0.323,2.043,0.32,3.064c-0.002,1.021-0.104,2.043-0.324,3.064C258.957,380.804,258.635,381.825,258.014,382.846z"/>
			</g>
			<g>
				<path style="fill:#94C8E3;" d="M318.788,366.562c-1.048-0.574-1.838-1.298-2.55-2.066c-0.701-0.775-1.301-1.608-1.813-2.491
					c-0.513-0.883-0.935-1.819-1.255-2.814c-0.31-1-0.541-2.046-0.51-3.243c1.052,0.572,1.842,1.295,2.553,2.064
					c0.701,0.775,1.301,1.608,1.809,2.493c0.509,0.885,0.931,1.821,1.251,2.816C318.583,364.322,318.815,365.367,318.788,366.562z"
					/>
			</g>
			<g>
				<path style="fill:#94C8E3;" d="M363.278,322.073c-1.195,0.027-2.241-0.205-3.241-0.514c-0.994-0.32-1.93-0.742-2.815-1.251
					c-0.886-0.509-1.719-1.108-2.493-1.809c-0.769-0.711-1.492-1.502-2.064-2.553c1.197-0.03,2.243,0.2,3.243,0.511
					c0.994,0.32,1.93,0.742,2.813,1.255c0.884,0.512,1.717,1.111,2.491,1.813C361.98,320.235,362.703,321.024,363.278,322.073z"/>
			</g>
			<g>
				<path style="fill:#94C8E3;" d="M379.562,261.299c-1.021,0.621-2.043,0.943-3.064,1.175c-1.021,0.22-2.043,0.322-3.064,0.324
					c-1.021,0.002-2.043-0.1-3.064-0.32c-1.021-0.231-2.043-0.555-3.064-1.179c1.021-0.625,2.043-0.948,3.064-1.18
					c1.021-0.22,2.043-0.322,3.064-0.32c1.021,0.002,2.043,0.104,3.064,0.324C377.519,260.356,378.541,260.678,379.562,261.299z"/>
			</g>
			<g>
				<path style="fill:#94C8E3;" d="M363.278,200.525c-0.574,1.048-1.297,1.838-2.066,2.55c-0.775,0.701-1.608,1.301-2.491,1.813
					c-0.883,0.513-1.819,0.934-2.813,1.255c-1,0.31-2.046,0.541-3.243,0.511c0.572-1.052,1.295-1.842,2.064-2.553
					c0.775-0.701,1.608-1.301,2.493-1.809c0.885-0.509,1.821-0.931,2.815-1.251C361.037,200.73,362.083,200.498,363.278,200.525z"/>
			</g>
			<g>
				<path style="fill:#94C8E3;" d="M318.788,156.036c0.027,1.195-0.205,2.24-0.514,3.241c-0.32,0.994-0.742,1.93-1.251,2.816
					c-0.509,0.886-1.108,1.719-1.809,2.493c-0.711,0.769-1.502,1.492-2.553,2.064c-0.03-1.197,0.2-2.243,0.51-3.243
					c0.32-0.994,0.742-1.93,1.255-2.814c0.512-0.884,1.111-1.717,1.813-2.491C316.95,157.333,317.74,156.61,318.788,156.036z"/>
			</g>
		</g>
		<path style="opacity:0.23;fill:#94C8E3;" d="M258.014,139.736c69.656,0,126.337,55.546,128.17,124.76
			c0.029-1.063,0.048-2.128,0.048-3.197c0-70.813-57.405-128.218-128.218-128.218s-128.218,57.405-128.218,128.218
			c0,1.069,0.019,2.134,0.048,3.197C131.677,195.282,188.358,139.736,258.014,139.736z"/>
		<path style="fill:#4C649E;" d="M251.27,267.131c0.828,2.731,3.815,4.076,6.12,3.42c3.178-0.904,4.653-5.498,2.7-8.1
			c-1.253-1.67-3.801-2.363-5.94-1.44C251.854,262.002,250.516,264.645,251.27,267.131z"/>
		<g>
			<path style="fill:#94C8E3;" d="M286.32,124.314c9.507,1.589,18.742,4.634,27.606,8.433c8.875,3.81,17.293,8.656,25.18,14.236
				c3.911,2.84,7.647,5.913,11.241,9.141c3.547,3.28,6.957,6.712,10.098,10.383c6.289,7.331,11.664,15.429,15.991,24.033
				c-2.405-4.171-4.834-8.328-7.662-12.218c-2.709-3.969-5.755-7.694-8.909-11.308c-3.212-3.566-6.576-6.991-10.13-10.214
				c-3.588-3.183-7.317-6.207-11.214-9.005c-7.783-5.607-16.147-10.408-24.906-14.346c-4.372-1.985-8.846-3.753-13.402-5.279
				C295.667,126.615,291.038,125.278,286.32,124.314z"/>
		</g>
		<g>
			<path style="fill:#94C8E3;" d="M255.83,395.451c-9.638,0.16-19.271-1.16-28.677-3.29c-9.418-2.138-18.575-5.379-27.343-9.437
				c-4.361-2.084-8.592-4.429-12.711-6.953c-4.082-2.583-8.058-5.34-11.813-8.381c-7.513-6.07-14.267-13.06-20.082-20.737
				c3.121,3.666,6.263,7.314,9.749,10.628c3.383,3.413,7.054,6.524,10.81,9.506c3.805,2.925,7.734,5.684,11.813,8.209
				c4.106,2.48,8.321,4.778,12.66,6.824c8.671,4.104,17.766,7.309,27.093,9.595c4.659,1.159,9.379,2.088,14.137,2.763
				C246.221,394.882,251.016,395.358,255.83,395.451z"/>
		</g>
	</g>
	<g>
		<g>
			<path style="fill:#EDBDA3;" d="M300.882,215.451c0.372,0.362,0.5,0.309,0.741,0.668c0.773,1.148,3.303,2.056,4.744,2.599
				c2.487,1.989,6.457,5.977,7.341,2.075c0.783-3.455,1.429-5.182,0.812-7.21c-0.037-0.204-1.512-1.138-1.635-1.367
				c-1.195-2.207-2.357-4.495-3.749-6.448c-2.048-2.874-4.736-1.258-4.301-0.403c0.135,0.266,4.926,2.339,4.012,1.765
				c-1.094-1.653-1.019-1.37-2.227-2.266c-2.453-1.82-5.137,0.143-3.058,1.47c0.32,0.204,1.59,0.178,2.172,0.346
				c0.11,0.032,0.191,0.075,0.23,0.134c0.045,0.069-1.004-0.659-1.578-1.017c-2.579-1.612-4.317,0.883-3.585,1.864
				c0.27,0.361,2.2-0.212,2.514,0.098c0.276,0.273-2.044-1.425-2.783-0.887c-1.882,1.371-1.294,4.922-0.759,5.802l1.913-1.797
				c-0.09-0.14,0.748,1.207,1.059,1.893c0.329,0.953,0.286,0.843-0.132,0.497"/>
			<g>
				<path style="fill:#CC8972;" d="M300.882,206.765c0.422-0.107,0.868-0.069,1.296,0.046c0.43,0.115,0.831,0.348,1.164,0.656
					c0.335,0.318,0.557,0.711,0.746,1.073c0.197,0.372,0.388,0.747,0.532,1.154c-0.318-0.292-0.588-0.615-0.853-0.942
					c-0.277-0.331-0.484-0.67-0.769-0.922C302.442,207.296,301.712,206.963,300.882,206.765z"/>
			</g>
			<g>
				<path style="fill:#CC8972;" d="M302.915,205.274c0.423,0.037,0.837,0.128,1.249,0.228c0.424,0.121,0.795,0.168,1.24,0.419
					c0.38,0.297,0.625,0.639,0.851,1.003c0.221,0.363,0.417,0.738,0.55,1.147c-0.308-0.298-0.58-0.612-0.857-0.916
					c-0.28-0.293-0.549-0.621-0.835-0.828c-0.099-0.094-0.342-0.147-0.52-0.226c-0.189-0.08-0.382-0.149-0.566-0.242
					C303.653,205.688,303.279,205.508,302.915,205.274z"/>
			</g>
			<g>
				<path style="fill:#CC8972;" d="M305.296,204.221c0.367,0.074,0.703,0.203,1.039,0.329c0.332,0.131,0.656,0.286,0.965,0.43
					l0.105,0.045l0.051,0.019c0.045,0.017,0.099,0.042,0.13,0.065c0.109,0.083,0.17,0.167,0.227,0.246
					c0.117,0.158,0.205,0.32,0.282,0.487c0.162,0.328,0.294,0.667,0.378,1.028c-0.248-0.273-0.466-0.558-0.683-0.836l-0.33-0.392
					c-0.052-0.062-0.115-0.109-0.147-0.136c-0.005-0.002,0.006,0.008,0.011,0.004c0,0-0.052-0.016-0.076-0.024l-0.145-0.054
					c-0.345-0.147-0.654-0.325-0.956-0.525C305.85,204.701,305.556,204.49,305.296,204.221z"/>
			</g>
		</g>
		<path style="opacity:0.11;fill:#344C82;" d="M417.812,440.922c0,1.395-17.346,2.526-38.743,2.526
			c-21.397,0-38.743-1.131-38.743-2.526s17.346-2.526,38.743-2.526C400.466,438.396,417.812,439.527,417.812,440.922z"/>
		<path style="fill:#EDBDA3;" d="M400.729,328.209c-0.198,1.781-0.773,4.35-1.189,6.397c-0.539,2.654-1.89,2.577-1.792,1.491
			c0.036-0.4,0.824-6.633,0.917-7.015c0.082-0.335-0.317-0.292-0.463,1.047c-0.004,0.005-0.375,1.593-0.645,3.008
			c-0.656,3.446-1.892,2.683-1.897,1.766c-0.002-0.338,0.452-5.84,0.459-6.173c0.003-0.148-0.141-2.516-0.225-3.181
			c-0.249-1.12-0.449-1.269-0.605-0.684c-0.332,2.742-0.924,4.483-1.719,3.974c-0.652-0.418-0.172-3.307-0.09-5.307
			c0.05-1.232,0.999-3.892,1.839-4.975c0.958-2.669,2.653-6.754,5.144-4.208c2.206,2.254,3.686,5.437,4.165,7.262
			c0.067,0.172,0.14,0.691,0.152,0.923c0.124,2.231,0.025,3.571-0.12,5.701c-0.212,3.135-1.295,3.928-1.364,3.077
			c-0.022-0.265,0.281-5.197-0.144-4.335c-0.058,1.764-0.69,3.88-0.927,5.924c-0.313,2.701-1.607,2.485-1.6,1.394
			c0.002-0.402,0.479-5.336,0.489-5.732c0.002-0.074,0.023-0.572-0.197-0.601C400.817,327.948,400.745,328.084,400.729,328.209z"/>
		<polygon style="fill:#FCC858;" points="313.215,213.572 339.056,235.163 335.902,233.45 360.336,239.297 357.631,258.703 
			332.683,246.901 330.667,246.419 329.528,245.188 306.654,220.475 		"/>
		<path style="fill:#233561;" d="M387.073,305.304c0,0,8.627,35.684,10.663,65.992c0,0-7.83,6.566-15.177,7.612
			c0,0-12.713-28.255-22.477-55.34L387.073,305.304z"/>
		<path style="fill:#233561;" d="M379.069,312.988c0,0-8.038,35.384-21.048,65.482c0,0-8.93,1.441-15.979-0.906
			c0,0,2.662-43.597,7.219-74.12L379.069,312.988z"/>
		<path style="fill:#EDBDA3;" d="M362.966,236.635c1.997-1.309,1.208-5.88,1.033-8.334l11.847-9.091
			c0.046,0.309,0.053,9.806,0.102,10.123c0.678,4.378,8.287,9.178,9.058,9.609c4.635,2.595-2.089,26.166-25.586,13.23
			c-0.101-0.052-0.199-0.109-0.296-0.171C354.416,249.339,358.938,239.275,362.966,236.635z"/>
		<g>
			<path style="fill:#FCC858;" d="M347.082,260.025c0.106-2.016,0.881-14.313,8.171-19.395c2.699-1.881,7.714-3.996,7.714-3.995
				c0.476,1.425,0.895,3.995,5.2,4.064c9.102,0.146,11.502-5.82,11.502-5.82c5.958,4.684,7.801,4.068,9.574,5.613
				c5.63,4.907,9.556,7.216,2.296,25.86l-4.587,21.788l2.293,19.494c-20.456,9.711-33.51,9.309-40.673,0.218
				C348.572,307.852,345.935,281.812,347.082,260.025z"/>
		</g>
		<polygon style="fill:#FFFFFF;" points="373.442,241.67 366.583,249.175 362.285,241.786 		"/>
		<path style="fill:#233561;" d="M369.96,242.1c0,0-2.46,3.957-6.084-0.489l3.367-0.973L369.96,242.1z"/>
		<g>
			<path style="fill:#FCC858;" d="M403.71,319.021c0.03-0.151,0.068-0.34,0.109-0.547
				C403.772,318.708,403.737,318.885,403.71,319.021z"/>
			<path style="fill:#FCC858;" d="M403.645,319.341C403.642,319.356,403.642,319.358,403.645,319.341L403.645,319.341z"/>
			<path style="fill:#FCC858;" d="M403.645,319.341c0.004-0.021,0.013-0.067,0.027-0.137
				C403.658,319.277,403.649,319.321,403.645,319.341z"/>
			<path style="fill:#FCC858;" d="M403.819,318.474c0.02-0.102,0.043-0.213,0.067-0.336
				C403.863,318.252,403.841,318.365,403.819,318.474z"/>
			<path style="fill:#FCC858;" d="M403.673,319.204c0.01-0.048,0.022-0.11,0.037-0.184
				C403.695,319.091,403.683,319.154,403.673,319.204z"/>
			<path style="fill:#FCC858;" d="M403.886,318.138c0.014-0.072,0.029-0.144,0.043-0.215
				C403.915,317.996,403.899,318.072,403.886,318.138z"/>
			<path style="fill:#FCC858;" d="M408.87,281.04c-2.555-6.431-6.495-20.852-11.535-31.883
				c-4.654-10.186-18.085-16.889-13.258,5.282c1.507,6.922,6.955,21.307,11.692,30.08l-0.831,32.471
				c2.253,0.183,9.215-0.183,9.215-0.183C405.299,311.074,408.87,281.04,408.87,281.04z"/>
			<path style="fill:#FCC858;" d="M404.125,316.945c-0.012,0.058-0.026,0.132-0.044,0.217
				C404.095,317.092,404.11,317.02,404.125,316.945z"/>
			<path style="fill:#FCC858;" d="M403.929,317.923c0.037-0.185,0.077-0.383,0.122-0.611
				C404.015,317.492,403.973,317.704,403.929,317.923z"/>
			<path style="fill:#FCC858;" d="M404.152,316.808c-0.01,0.049-0.018,0.09-0.027,0.137
				C404.142,316.858,404.152,316.808,404.152,316.808z"/>
		</g>
		<path style="fill:#F2F2F2;" d="M394.516,317.024c0,0,7.125-0.526,9.997-1.15c0,0,0.625,2.902-0.499,3.945
			c-1.123,1.043-8.067,1.472-8.922,0.555C394.319,319.544,394.516,317.024,394.516,317.024z"/>
		<path style="fill:#FCC858;" d="M395.668,318.986c0.227,0.096,0.488-0.01,0.584-0.237c0.096-0.227-0.01-0.488-0.237-0.584
			c-0.227-0.096-0.488,0.01-0.584,0.237C395.335,318.629,395.441,318.89,395.668,318.986z"/>
		<path style="fill:#F2F2F2;" d="M316.167,214.559c0,0-5.773,6.204-7.769,9.062c0,0-2.884-2.021-2.748-3.833
			c0.136-1.813,5.83-7.786,7.314-7.678C314.306,212.208,316.167,214.559,316.167,214.559z"/>
		<path style="fill:#FCC858;" d="M307.869,219.799c-0.274,0.099-0.416,0.402-0.316,0.677c0.1,0.274,0.402,0.416,0.677,0.317
			c0.274-0.1,0.416-0.403,0.317-0.677C308.447,219.841,308.143,219.699,307.869,219.799z"/>
		<g>
			<path style="fill:#0D1017;" d="M370.129,348.97c-0.522-0.77-0.994-1.565-1.479-2.353c-0.474-0.794-0.925-1.599-1.376-2.405
				c-0.879-1.623-1.74-3.254-2.54-4.917l0.208,0.213c-2.464-1.339-4.89-2.748-7.211-4.357c2.638,1.009,5.171,2.216,7.666,3.495
				l0.133,0.068l0.076,0.145c0.854,1.635,1.645,3.302,2.419,4.977c0.375,0.844,0.75,1.687,1.103,2.542
				C369.47,347.237,369.825,348.091,370.129,348.97z"/>
		</g>
		<g>
			<path style="fill:#233561;" d="M409.926,416.137l-27.558-37.604l10.785-13.917c0,0,9.627,7.954,13.091,15.914
				c6.943,15.954,11.068,24.609,13.492,29.302C416.917,412.311,413.389,414.918,409.926,416.137z"/>
			<path style="fill:#EDBDA3;" d="M414.692,422.641l-4.766-6.504c3.463-1.22,6.991-3.826,9.81-6.306c2.75,5.324,3.31,5.55,3.31,5.55
				S421.253,420.442,414.692,422.641z"/>
		</g>
		<g>
			<path style="fill:#233561;" d="M337.324,425.711l5.123-50.466l15.997-2.012c0,0,0.824,20.78-1.897,29.024
				c-3.953,11.975-6.225,19.74-7.525,24.772C345.462,426.972,340.979,426.673,337.324,425.711z"/>
			<path style="fill:#EDBDA3;" d="M347.474,434.145c0,0-4.906,3.845-11.078,0.715l0.929-9.15c3.655,0.962,8.138,1.261,11.698,1.319
				C347.424,433.845,347.474,434.145,347.474,434.145z"/>
		</g>
		<g>
			<path style="fill:#EDBDA3;" d="M363.685,202.89c0,0-4.534,2.714-4.402,7.725c0.033,1.27-1.53,7.689-1.53,7.689
				c-0.786,7.95,4.095,13.242,5.979,13.311c4.541,0.165,8.243-2.098,10.491-4.241c4.128-3.937,6.607-17.328,3.375-21.729
				C373.256,199.73,365.887,200.24,363.685,202.89z"/>
			<path style="fill:#233561;" d="M357.711,221.194c0,0,1.225,0.729,3.789-0.082c1.629-0.516,4.056-2.229,4.577-1.144
				c2.366,4.925,2.275,10.922-1.963,11.654C359.875,232.353,357.119,222.98,357.711,221.194z"/>
			<path style="fill:#233561;" d="M375.484,218.337c-0.137-1.016-0.708-6.728-0.359-7.889c-0.179-0.121-0.511-0.185-0.916-0.21
				c-1.998-0.126-3.565-1.773-3.643-3.773l0,0c0,0-3.862,0.087-7.774-0.683c-5.05-0.994-3.726-6.733-3.626-6.758
				c1.339-0.34,12.158-2.043,18.323,1.976c6.052,3.945,3.133,13.599,2.592,15.214c-0.048,0.144-0.178,0.235-0.33,0.24l-3.892,2.198
				C375.671,218.658,375.509,218.523,375.484,218.337z"/>
			<path style="fill:#233561;" d="M379.874,203.477c0,0,4.789,2.674,1.013,11.936C380.887,215.412,377.774,212.356,379.874,203.477z
				"/>
			<path style="fill:#EDBDA3;" d="M360.03,211.459c0,0-1.9,3.825-4.622,6.32c-0.914,0.837,1.844,3.577,3.05,3.698
				C361.134,221.745,360.03,211.459,360.03,211.459z"/>
			<path style="fill:#EDBDA3;" d="M380.439,219.7c-1.239,2.167-3.486,3.112-5.02,2.111c-1.533-1.001-1.772-3.569-0.533-5.736
				c1.239-2.167,3.487-3.112,5.02-2.111C381.44,214.965,381.679,217.533,380.439,219.7z"/>
			<g>
				<path style="fill:#CC8972;" d="M374.397,224.999c-0.233,0.978-0.715,1.892-1.321,2.706c-0.608,0.814-1.358,1.535-2.223,2.083
					c-0.87,0.528-1.801,0.988-2.8,1.192c-0.486,0.15-0.998,0.173-1.493,0.258c-0.503,0.031-1.007,0.03-1.505,0.024
					c0.988-0.172,1.964-0.329,2.892-0.652c0.939-0.282,1.811-0.732,2.633-1.242c0.828-0.51,1.544-1.18,2.197-1.904
					C373.422,226.73,373.972,225.904,374.397,224.999z"/>
			</g>
			<g>
				<path style="fill:#EDBDA3;" d="M364.113,221.923c-0.295,0.753-0.91,1.367-1.65,1.737c-0.741,0.372-1.656,0.422-2.391,0.094
					c0.403-0.051,0.78-0.065,1.14-0.169c0.359-0.094,0.707-0.205,1.033-0.375C362.91,222.895,363.504,222.442,364.113,221.923z"/>
			</g>
			<path style="fill:#233561;" d="M361.612,214.672c-0.025,0.427,0.185,0.787,0.47,0.804c0.285,0.017,0.536-0.316,0.561-0.743
				c0.025-0.427-0.185-0.787-0.47-0.804C361.888,213.912,361.637,214.245,361.612,214.672z"/>
			<g>
				<path style="fill:#CC8972;" d="M379.108,215.218c-0.573-0.031-1.148,0.08-1.577,0.377c-0.214,0.149-0.384,0.345-0.509,0.569
					c-0.138,0.217-0.205,0.475-0.279,0.728l-0.147-0.282c0.267,0.109,0.507,0.233,0.742,0.414c0.205,0.174,0.508,0.455,0.431,0.891
					c-0.036,0.202-0.162,0.339-0.268,0.447l-0.295,0.266c-0.099,0.089-0.206,0.17-0.317,0.25c-0.136,0.082-0.169,0.151-0.434,0.229
					l0.154-0.153c-0.05,0.511,0.006,1.105,0.404,1.53c-0.254-0.142-0.444-0.395-0.565-0.669c-0.125-0.28-0.169-0.574-0.174-0.891
					l0.154-0.153c-0.019-0.011,0.148-0.119,0.215-0.195l0.268-0.264c0.176-0.184,0.396-0.378,0.385-0.488
					c0.035-0.103-0.089-0.274-0.268-0.41c-0.176-0.138-0.397-0.264-0.609-0.354l-0.015-0.007c-0.108-0.046-0.163-0.165-0.132-0.276
					c0.084-0.296,0.197-0.59,0.382-0.85c0.167-0.27,0.43-0.477,0.704-0.622C377.918,215.01,378.567,215.027,379.108,215.218z"/>
			</g>
			<path style="fill:#233561;" d="M364.484,212.747c0.234-0.296,0.111-1.244-1.142-1.825c-0.699-0.324-1.333-0.134-1.422-0.079
				c-0.189,0.116-0.284,0.393-0.2,0.612c0.15,0.39,0.734,0.248,1.475,0.755c0.532,0.364,0.321,0.453,0.85,0.62
				C364.096,212.847,364.346,212.923,364.484,212.747z"/>
		</g>
		<g>
			<path style="fill:#FFFFFF;" d="M376.775,231.488c0,0-4.21,7.162-9.533,9.149c0,0,3.416,1.725,5.892,3.402
				c0,0,7.284-6.917,7.753-8.233C380.887,235.806,380.361,232.54,376.775,231.488z"/>
		</g>
		<path style="fill:#FFFFFF;" d="M364.03,235.004l-0.746,2.614l3.958,3.02c0,0-3.184,1.41-4.642,2.301c0,0-1.698-1.891-1.727-5.059
			C360.873,237.879,361.531,235.689,364.03,235.004z"/>
		<path style="fill:#233561;" d="M377.337,202.639c0,0-2.521-3.983-15.142-6.236C362.195,196.403,360.101,202.377,377.337,202.639z"
			/>
		<path style="fill:#233561;" d="M379.02,202.312c0,0-2.379-3.248-9.95-5.408C369.07,196.904,368.506,201.083,379.02,202.312z"/>
		<path style="fill:#233561;" d="M377.934,203.161c0,0-0.012-1.75,2.444-3.641C380.379,199.521,381.688,201.673,377.934,203.161z"/>
		<path style="fill:#233561;" d="M377.891,202.909c0,0,1.25-1.225,4.316-0.774C382.207,202.135,381.57,204.572,377.891,202.909z"/>
		<path style="fill:none;stroke:#F2F2F2;stroke-width:0.366;stroke-miterlimit:10;" d="M360.178,214.676
			c0,1.597,0.976,2.892,2.18,2.892c1.204,0,2.18-1.295,2.18-2.892c0-1.597-0.976-2.892-2.18-2.892
			C361.154,211.784,360.178,213.079,360.178,214.676z"/>
		<path style="fill:none;stroke:#F2F2F2;stroke-width:0.366;stroke-miterlimit:10;" d="M360.243,213.929
			c0,0-0.322-0.879-1.404-0.704"/>
		<path style="fill:#233561;" d="M366.262,220.514c0,0,2.121,2.461,1.978,4.678C368.24,225.192,365.976,222.832,366.262,220.514z"/>
		<path style="fill:#233561;" d="M358.839,221.645c0,0,2.838-3.107,4.981-1.859C363.821,219.786,361.053,223.22,358.839,221.645z"/>
		<path style="fill:#233561;" d="M366.792,222.058c0,0,1.948,2.979,0.965,5.059C367.756,227.118,365.58,224.193,366.792,222.058z"/>
		<polygon style="fill:#233561;" points="366.944,242.939 369.96,245.48 366.583,249.175 364.057,244.833 		"/>
		<path style="fill:#233561;" d="M334.059,435.064c0.004-0.002,0.004-0.004,0.008-0.005c1.949-0.906,1.229-3.88,3.607-2.203
			c1.526,1.076,2.331,3.012,3.918,3.225c3.513-0.085,5.882-1.935,5.882-1.935v0l0.388-0.025c0,0,1.705,3.004,1.216,8.893
			c-0.027,0.329-0.299,0.594-0.628,0.612l-6.16,0.352c-5.838-1.983-4.486,1.702-20.981-0.318c-0.292-0.036-0.54-0.256-0.585-0.547
			C320.464,441.428,320.667,435.929,334.059,435.064z"/>
		<path style="fill:#233561;" d="M411.893,423.414c0.002-0.004,0.001-0.006,0.003-0.009c0.988-1.909-1.401-3.822,1.507-3.949
			c1.866-0.082,3.686,0.957,5.072,0.155c2.727-2.216,3.47-5.128,3.47-5.128l0,0l0.291-0.257c0,0,3.186,1.334,6.4,6.292
			c0.179,0.277,0.126,0.653-0.123,0.869l-4.659,4.045c-5.832,2.001-2.509,4.09-16.795,12.579c-0.253,0.151-0.584,0.128-0.797-0.075
			C405.029,436.763,401.826,432.288,411.893,423.414z"/>
		
			<line style="fill:none;stroke:#F2F2F2;stroke-width:0.366;stroke-miterlimit:10;" x1="364.434" y1="214.703" x2="375.327" y2="215.412"/>
		<g>
			<g>
				<path style="fill:#B58C40;" d="M389.954,271.921c-0.875-1.785-1.532-3.639-2.137-5.51c-0.583-1.878-1.112-3.772-1.423-5.736
					c0.876,1.785,1.534,3.639,2.137,5.51C389.113,268.063,389.642,269.958,389.954,271.921z"/>
			</g>
			<g>
				<path style="fill:#B58C40;" d="M349.814,247.702c-0.284,1.111-0.583,2.151-0.891,3.207c-0.318,1.052-0.616,2.105-1.077,3.164
					c-0.127-1.15,0.049-2.284,0.358-3.377C348.541,249.619,349.005,248.542,349.814,247.702z"/>
			</g>
			<g>
				<path style="fill:#B58C40;" d="M376.436,256.025c-0.761,2.709-1.681,5.368-2.664,8.005c-0.986,2.636-2.098,5.224-3.271,7.786
					c-1.235,2.532-2.529,5.048-4.109,7.398c-0.795,1.17-1.658,2.302-2.656,3.317c-0.996,0.972-2.217,1.948-3.664,1.989
					c1.413-0.215,2.499-1.205,3.396-2.241c0.919-1.039,1.715-2.188,2.439-3.378c1.456-2.378,2.742-4.865,3.916-7.405
					c1.222-2.518,2.318-5.098,3.415-7.679C374.33,261.234,375.383,258.632,376.436,256.025z"/>
			</g>
			<g>
				<path style="fill:#B58C40;" d="M352.664,268.988c0.444,3.001,0.894,5.996,1.396,8.98c0.505,2.983,1.015,5.965,1.673,8.914
					c0.602,2.96,1.333,5.893,2.258,8.759c0.464,1.432,0.989,2.846,1.654,4.193c0.651,1.346,1.452,2.655,2.641,3.608
					c-1.296-0.818-2.199-2.129-2.966-3.437c-0.744-1.337-1.338-2.749-1.874-4.176c-1.051-2.866-1.783-5.828-2.446-8.793
					c-0.601-2.98-1.123-5.974-1.508-8.986C353.107,275.042,352.799,272.021,352.664,268.988z"/>
			</g>
			<g>
				<path style="fill:#B58C40;" d="M384.12,287.64c-0.655,0.168-1.292,0.361-1.94,0.499c-0.645,0.153-1.293,0.276-1.937,0.407
					l-1.925,0.369c-0.307,0.069-0.645,0.142-0.866,0.259c-0.036,0.034-0.056,0.011-0.064,0.014c0.001,0.029,0.052,0.085,0.115,0.129
					c0.127,0.086,0.279,0.163,0.43,0.243c-0.171-0.002-0.342-0.011-0.517-0.064c-0.086-0.028-0.184-0.057-0.275-0.168
					c-0.116-0.153-0.009-0.345,0.06-0.424c0.307-0.293,0.623-0.414,0.944-0.549c0.64-0.254,1.297-0.411,1.955-0.545
					C381.421,287.581,382.765,287.423,384.12,287.64z"/>
			</g>
			<g>
				<path style="fill:#B58C40;" d="M383.319,288.6c-0.553,0.721-1.192,1.278-1.799,1.846c-0.305,0.276-0.609,0.559-0.843,0.842
					c-0.109,0.144-0.204,0.283-0.197,0.399c-0.024,0.145,0.162,0.291,0.343,0.423c-0.219,0.017-0.495-0.009-0.683-0.283
					c-0.165-0.298-0.065-0.607,0.027-0.827c0.204-0.463,0.523-0.793,0.845-1.105C381.682,289.302,382.436,288.833,383.319,288.6z"/>
			</g>
		</g>
	</g>
	<g>
		<path style="opacity:0.23;fill:#4C649E;" d="M131.777,201.036c-1.569,0.098-2.976,0.154-4.249,0.195
			c-7.753,16.813-12.349,35.379-13.036,54.941c0.947,1.18,1.562,1.89,1.562,1.89s10.321-12.154,13.558-29.933
			c2.643-14.517,12.275-11.03,20.407-10.804c13.585,0.378,16.487-4.464,6.809-13.895
			C146.956,193.808,144.285,200.258,131.777,201.036z"/>
		<path style="fill:#7FC991;" d="M116.054,252.383c0,0-14.994-17.264-11.839-24.63c3.155-7.366,0.283-16.271,6.575-24.864
			c6.291-8.593,8.479-6.754,20.987-7.531c12.508-0.777,15.179-7.227,25.051,2.393c9.678,9.432,6.776,14.273-6.809,13.895
			c-8.132-0.226-17.765-3.713-20.407,10.804C126.375,240.228,116.054,252.383,116.054,252.383z"/>
		<path style="fill:#7FC991;" d="M96.668,242.087c4.413-2.503,0.668-14.762-6.499-21.268c-4.951-4.494-10.02-0.701-17.216-6.542
			c-5.083-4.126-4.805-7.845-8.83-8.723c-4.755-1.037-6.594,3.838-14.163,5.364c-7.285,1.468-9.084-2.344-13.591-0.492
			c-8.266,3.396-14.127,21.109-9.071,26.525c3.094,3.314,10.685-6.683,18.914-3.266c4.101,1.703,3.995,4.787,8.091,5.825
			c5.738,1.454,8.657-3.909,14.686-4.926C80.643,232.618,91.734,244.886,96.668,242.087z"/>
		<g>
			<path style="fill:#40635B;" d="M126.309,324.58c-1.139-5.562-2.352-11.106-3.688-16.621c-1.297-5.523-2.713-11.018-4.235-16.481
				c-3.055-10.914-6.381-21.787-10.807-32.206c-2.205-5.201-4.63-10.339-7.875-14.947l-2.485-3.428
				c-0.858-1.119-1.807-2.166-2.706-3.253c-0.465-0.53-0.889-1.098-1.388-1.597l-1.481-1.511c-0.982-1.013-1.946-2.046-3.03-2.951
				c-4.157-3.813-8.832-7.079-13.896-9.589c-5.046-2.517-10.478-4.425-16.132-5.019c5.683,0.368,11.19,2.19,16.346,4.578
				c5.152,2.442,9.927,5.67,14.195,9.456c1.112,0.9,2.104,1.926,3.114,2.936l1.51,1.519c0.507,0.503,0.939,1.074,1.413,1.608
				c0.915,1.094,1.881,2.15,2.755,3.277l2.531,3.453c3.324,4.669,5.805,9.853,8.048,15.077c2.196,5.255,4.133,10.61,5.858,16.027
				c1.731,5.415,3.363,10.862,4.769,16.368C122.012,302.27,124.43,313.381,126.309,324.58z"/>
		</g>
		<g>
			<path style="fill:#40635B;" d="M128.713,324.258c-1.882-9.562-3.673-19.14-5.458-28.719l-5.226-28.761
				c-1.635-9.607-3.333-19.206-4.634-28.875c-0.62-4.836-1.203-9.69-1.315-14.583c-0.027-2.442,0.062-4.909,0.602-7.309
				c0.297-1.191,0.722-2.359,1.363-3.408c0.642-1.049,1.507-1.943,2.48-2.673c-0.943,0.77-1.763,1.694-2.35,2.751
				c-0.597,1.052-0.979,2.209-1.234,3.388c-0.458,2.377-0.472,4.818-0.371,7.238c0.21,4.849,0.875,9.678,1.586,14.489
				c1.456,9.624,3.144,19.219,4.856,28.809l4.996,28.8C125.637,305.013,127.238,314.625,128.713,324.258z"/>
		</g>
		<path style="fill:#7FC991;" d="M115.647,289.088c0,0,1.47-19.041-4.416-22.219c-5.886-3.178-8.63-10.491-17.203-12.844
			c-8.573-2.353-9.049-0.015-17.63,5.968c-8.581,5.984-13.675,3.153-15.136,14.566c-1.432,11.19,2.978,12.848,11.663,5.551
			c5.199-4.368,9.687-11.647,18.949-3.528C103.218,286.527,115.647,289.088,115.647,289.088z"/>
		<g>
			<path style="fill:#40635B;" d="M123.809,324.884l-0.732-4.069l-0.785-4.056l-0.822-4.045l-0.907-4.025
				c-1.261-5.352-2.672-10.67-4.486-15.85c-1.742-5.202-3.871-10.277-6.526-15.068c-0.619-1.226-1.38-2.363-2.109-3.523
				c-0.692-1.188-1.573-2.239-2.376-3.35l-0.611-0.828l-0.678-0.772l-1.359-1.547c-0.429-0.542-0.984-0.955-1.472-1.439
				l-1.504-1.419c1.052,0.883,2.177,1.703,3.164,2.67l1.453,1.482l0.728,0.743l0.662,0.8c0.853,1.089,1.779,2.132,2.518,3.305
				c0.776,1.148,1.586,2.277,2.252,3.493c2.828,4.773,4.975,9.912,6.804,15.129c1.749,5.25,3.183,10.598,4.289,16.009
				C122.418,313.937,123.254,319.398,123.809,324.884z"/>
		</g>
	</g>
	<g>
		<ellipse style="opacity:0.11;fill:#344C82;" cx="129.398" cy="433.604" rx="86.631" ry="13.207"/>
		<g>
			<polygon style="fill:#ABBAC2;" points="54.523,297.284 42.767,430.711 71.25,430.711 			"/>
			<path style="fill:#FFFFFF;" d="M56.299,322.62c0,0,4.211,113.208,11.215,117.256c7.004,4.047,129.698,8.641,157.247-15.844
				c0,0-10.451-15.895-12.978-29.73c-2.527-13.835-8.373-81.917-8.373-81.917L56.299,322.62z"/>
			<g>
				<g>
					<g>
						<polygon style="fill:none;stroke:#CCCCCC;stroke-width:0.5;stroke-miterlimit:10;" points="106.079,356.584 83.538,359.641 
							81.864,335.768 105.31,334.125 						"/>
						<polygon style="fill:none;stroke:#CCCCCC;stroke-width:0.5;stroke-miterlimit:10;" points="136.229,355.946 112.783,357.59 
							110.995,332.086 134.555,332.074 						"/>
						<polygon style="fill:none;stroke:#CCCCCC;stroke-width:0.5;stroke-miterlimit:10;" points="164.557,352.309 142.028,355.54 
							140.354,331.668 163.8,330.024 						"/>
						<polygon style="fill:none;stroke:#CCCCCC;stroke-width:0.5;stroke-miterlimit:10;" points="109.299,391.013 85.768,391.446 
							84.094,367.574 107.54,365.93 						"/>
						<polygon style="fill:none;stroke:#CCCCCC;stroke-width:0.5;stroke-miterlimit:10;" points="138.459,387.752 115.134,391.129 
							113.339,365.523 136.7,362.664 						"/>
						<polygon style="fill:none;stroke:#CCCCCC;stroke-width:0.5;stroke-miterlimit:10;" points="167.825,387.435 144.258,387.345 
							142.584,363.473 166.03,361.829 						"/>
						<polygon style="fill:none;stroke:#CCCCCC;stroke-width:0.5;stroke-miterlimit:10;" points="111.444,421.608 87.998,423.251 
							86.268,398.579 109.77,397.736 						"/>
						
							<rect x="169.731" y="328.813" transform="matrix(0.9976 -0.0699 0.0699 0.9976 -23.3906 13.528)" style="fill:none;stroke:#CCCCCC;stroke-width:0.5;stroke-miterlimit:10;" width="23.503" height="23.931"/>
						
							<rect x="171.961" y="360.619" transform="matrix(0.9976 -0.0699 0.0699 0.9976 -25.6082 13.761)" style="fill:none;stroke:#CCCCCC;stroke-width:0.5;stroke-miterlimit:10;" width="23.503" height="23.931"/>
						<polygon style="fill:none;stroke:#CCCCCC;stroke-width:0.5;stroke-miterlimit:10;" points="198.503,415.504 175.057,417.148 
							174.24,391.711 196.829,391.632 						"/>
						<polygon style="fill:none;stroke:#CCCCCC;stroke-width:0.5;stroke-miterlimit:10;" points="140.689,419.557 115.938,418.901 
							115.569,397.329 139.015,395.685 						"/>
					</g>
					<polygon style="fill:none;stroke:#CCCCCC;stroke-width:0.5;stroke-miterlimit:10;" points="169.934,417.507 146.488,419.151 
						144.814,395.279 168.204,392.834 					"/>
				</g>
				<g>
					<path style="fill:#FCC858;" d="M201.634,287.048L54.523,297.284l1.776,25.336l147.112-10.236L201.634,287.048z M82.017,312.302
						c-2.317,0.162-4.327-1.584-4.489-3.901c-0.162-2.317,1.584-4.327,3.901-4.489c2.317-0.163,4.327,1.584,4.489,3.901
						C86.08,310.13,84.334,312.14,82.017,312.302z M107.067,310.546c-2.317,0.162-4.327-1.584-4.489-3.901
						c-0.162-2.317,1.584-4.327,3.901-4.489c2.317-0.162,4.327,1.584,4.489,3.901C111.13,308.374,109.384,310.383,107.067,310.546z
						 M132.117,308.789c-2.317,0.162-4.327-1.584-4.489-3.901c-0.162-2.317,1.584-4.327,3.901-4.489
						c2.317-0.163,4.327,1.584,4.489,3.901C136.18,306.617,134.434,308.627,132.117,308.789z M157.167,307.033
						c-2.317,0.163-4.327-1.584-4.489-3.901s1.584-4.327,3.901-4.489c2.317-0.162,4.327,1.584,4.489,3.901
						C161.23,304.861,159.484,306.871,157.167,307.033z M182.217,305.277c-2.317,0.162-4.327-1.584-4.489-3.901
						c-0.163-2.317,1.584-4.327,3.901-4.489c2.317-0.163,4.327,1.584,4.489,3.901C186.28,303.105,184.534,305.115,182.217,305.277z"
						/>
				</g>
			</g>
			<g>
				<g>
					<path style="fill:#4D4D4D;" d="M128.362,339.432c-0.468,1.173-1.093,2.209-1.755,3.214c-0.671,0.996-1.402,1.941-2.183,2.842
						c-0.781,0.901-1.615,1.756-2.507,2.56c-0.902,0.796-1.841,1.559-2.94,2.184c0.466-1.175,1.09-2.212,1.753-3.216
						c0.672-0.996,1.402-1.941,2.185-2.84c0.783-0.899,1.617-1.755,2.509-2.558C126.326,340.823,127.265,340.059,128.362,339.432z"
						/>
				</g>
				<g>
					<path style="fill:#4D4D4D;" d="M129.069,349.525c-1.173-0.468-2.209-1.093-3.214-1.755c-0.996-0.671-1.941-1.402-2.842-2.183
						c-0.901-0.781-1.756-1.615-2.56-2.507c-0.796-0.902-1.559-1.841-2.184-2.94c1.175,0.466,2.212,1.09,3.216,1.753
						c0.996,0.672,1.941,1.402,2.84,2.185c0.899,0.783,1.755,1.617,2.558,2.509C127.678,347.49,128.442,348.428,129.069,349.525z"/>
				</g>
			</g>
			<g>
				<g>
					<path style="fill:#4D4D4D;" d="M162.124,400.592c-0.468,1.173-1.093,2.209-1.755,3.214c-0.671,0.996-1.402,1.941-2.183,2.842
						c-0.781,0.901-1.615,1.756-2.507,2.56c-0.902,0.796-1.841,1.559-2.94,2.184c0.466-1.175,1.09-2.212,1.753-3.216
						c0.672-0.996,1.402-1.941,2.185-2.84c0.783-0.899,1.617-1.754,2.509-2.558C160.089,401.983,161.027,401.219,162.124,400.592z"
						/>
				</g>
				<g>
					<path style="fill:#4D4D4D;" d="M162.831,410.685c-1.173-0.468-2.209-1.093-3.214-1.755c-0.996-0.671-1.941-1.402-2.842-2.183
						c-0.901-0.781-1.756-1.615-2.56-2.507c-0.796-0.902-1.559-1.841-2.184-2.94c1.175,0.466,2.212,1.09,3.216,1.753
						c0.996,0.672,1.941,1.402,2.84,2.185c0.899,0.783,1.755,1.616,2.558,2.509C161.441,408.65,162.204,409.588,162.831,410.685z"/>
				</g>
			</g>
			<g>
				<g>
					<path style="fill:#94C8E3;" d="M101.346,373.288c-0.468,1.173-1.093,2.209-1.755,3.214c-0.671,0.996-1.402,1.941-2.183,2.842
						c-0.781,0.901-1.615,1.756-2.507,2.56c-0.902,0.796-1.841,1.559-2.94,2.184c0.466-1.175,1.09-2.212,1.753-3.216
						c0.671-0.996,1.402-1.941,2.185-2.84c0.783-0.899,1.617-1.755,2.509-2.558C99.311,374.679,100.25,373.915,101.346,373.288z"/>
				</g>
				<g>
					<path style="fill:#94C8E3;" d="M102.054,383.381c-1.173-0.468-2.209-1.093-3.214-1.755c-0.996-0.671-1.941-1.402-2.842-2.183
						c-0.901-0.781-1.756-1.615-2.56-2.507c-0.796-0.902-1.559-1.841-2.184-2.94c1.175,0.466,2.212,1.09,3.216,1.753
						c0.996,0.672,1.941,1.402,2.84,2.185c0.899,0.783,1.755,1.617,2.558,2.509C100.663,381.345,101.427,382.284,102.054,383.381z"
						/>
				</g>
			</g>
			<g>
				<path style="fill:#CCCCCC;" d="M201.525,430.711c1.388-1.066,2.684-2.217,3.939-3.394c1.242-1.192,2.42-2.439,3.487-3.772
					c1.08-1.325,1.991-2.767,2.8-4.268c0.789-1.518,1.35-3.135,1.804-4.833c-0.067,1.743-0.393,3.521-1.096,5.16
					c-0.696,1.635-1.62,3.177-2.728,4.564C207.486,426.91,204.7,429.213,201.525,430.711z"/>
			</g>
			<g>
				<path style="fill:#CCCCCC;" d="M60.472,326.209l0.819,13.518l0.88,13.511c0.63,9.003,1.277,18.005,2.13,26.987
					c0.782,8.988,1.757,17.959,3.019,26.887c0.643,4.461,1.38,8.911,2.357,13.308c0.222,1.105,0.494,2.197,0.778,3.286
					c0.255,1.099,0.605,2.167,0.931,3.245c0.149,0.544,0.364,1.064,0.561,1.591c0.213,0.519,0.367,1.067,0.629,1.565l0.736,1.52
					l0.947,1.4c-1.509-1.714-2.309-3.893-3.124-5.988c-0.363-1.071-0.752-2.137-1.044-3.23c-0.322-1.085-0.632-2.174-0.892-3.275
					c-1.078-4.395-1.903-8.845-2.64-13.305c-1.424-8.93-2.393-17.919-3.254-26.912c-0.771-9.002-1.433-18.011-1.899-27.032
					C60.945,344.265,60.586,335.24,60.472,326.209z"/>
			</g>
			<g>
				<polygon style="fill:#B58C40;" points="56.299,322.62 62.004,322.22 60.472,299.12 54.523,297.284 				"/>
			</g>
			<g>
				<path style="fill:#4D4D4D;" d="M67.366,296.383c0.788-1.705,1.84-3.295,3.095-4.737c1.267-1.419,2.774-2.732,4.654-3.5
					c0.934-0.383,1.956-0.622,3.002-0.642c1.046-0.012,2.092,0.2,3.061,0.57c1.937,0.786,3.495,2.095,4.784,3.631
					c1.313,1.53,2.201,3.53,2.355,5.607c0.162,2.082-0.426,4.128-1.387,5.856c-0.971,1.738-2.309,3.207-3.84,4.381
					c-1.536,1.154-3.282,2.075-5.145,2.403c1.708-0.782,3.191-1.894,4.463-3.182c1.271-1.284,2.344-2.753,3.068-4.344
					c0.735-1.583,1.095-3.297,0.919-4.945c-0.146-1.657-0.899-3.197-1.962-4.533c-1.076-1.339-2.457-2.494-3.952-3.2
					c-1.517-0.667-3.223-0.757-4.857-0.222c-1.631,0.537-3.162,1.547-4.524,2.757C69.733,293.497,68.488,294.884,67.366,296.383z"/>
			</g>
			<g>
				<path style="fill:#4D4D4D;" d="M92.551,294.116c0.788-1.705,1.84-3.295,3.095-4.737c1.267-1.419,2.774-2.732,4.654-3.5
					c0.934-0.383,1.956-0.622,3.002-0.642c1.046-0.012,2.092,0.2,3.061,0.57c1.937,0.787,3.495,2.095,4.784,3.631
					c1.313,1.53,2.201,3.53,2.355,5.607c0.162,2.082-0.426,4.128-1.387,5.856c-0.971,1.738-2.309,3.207-3.84,4.381
					c-1.536,1.154-3.282,2.075-5.145,2.403c1.709-0.782,3.191-1.894,4.463-3.182c1.271-1.284,2.344-2.753,3.068-4.344
					c0.735-1.583,1.095-3.297,0.919-4.945c-0.146-1.657-0.899-3.197-1.962-4.532c-1.076-1.339-2.457-2.494-3.952-3.2
					c-1.517-0.667-3.223-0.757-4.857-0.221c-1.631,0.537-3.162,1.547-4.524,2.757C94.919,291.23,93.674,292.617,92.551,294.116z"/>
			</g>
			<g>
				<path style="fill:#4D4D4D;" d="M117.919,292.962c0.71-1.574,1.668-3.042,2.815-4.375c1.159-1.312,2.542-2.529,4.278-3.243
					c0.862-0.357,1.808-0.58,2.778-0.602c0.969-0.013,1.94,0.182,2.838,0.524c1.796,0.725,3.233,1.933,4.426,3.351
					c1.215,1.412,2.036,3.267,2.178,5.191c0.148,1.928-0.401,3.82-1.292,5.413c-0.902,1.602-2.14,2.95-3.557,4.023
					c-1.421,1.054-3.034,1.892-4.751,2.174c1.562-0.737,2.912-1.765,4.069-2.953c1.156-1.183,2.13-2.532,2.785-3.986
					c0.666-1.447,0.986-3.007,0.824-4.502c-0.133-1.504-0.82-2.898-1.785-4.117c-0.979-1.221-2.239-2.275-3.594-2.92
					c-1.376-0.607-2.918-0.696-4.409-0.215c-1.487,0.483-2.894,1.398-4.148,2.5C120.114,290.329,118.963,291.594,117.919,292.962z"
					/>
			</g>
			<g>
				<path style="fill:#4D4D4D;" d="M142.779,290.755c0.706-1.566,1.659-3.028,2.799-4.355c1.153-1.306,2.529-2.518,4.257-3.229
					c0.858-0.355,1.8-0.578,2.765-0.6c0.965-0.013,1.931,0.181,2.825,0.521c1.788,0.722,3.219,1.924,4.406,3.336
					c1.21,1.406,2.027,3.253,2.168,5.168c0.148,1.92-0.4,3.803-1.287,5.389c-0.898,1.594-2.131,2.936-3.541,4.003
					c-1.415,1.049-3.021,1.881-4.73,2.161c1.554-0.734,2.896-1.758,4.048-2.94c1.149-1.178,2.118-2.52,2.77-3.966
					c0.662-1.44,0.98-2.991,0.819-4.478c-0.133-1.496-0.815-2.882-1.775-4.094c-0.974-1.215-2.227-2.263-3.574-2.904
					c-1.368-0.604-2.902-0.693-4.385-0.215c-1.479,0.48-2.879,1.39-4.127,2.486C144.965,288.136,143.819,289.395,142.779,290.755z"
					/>
			</g>
			<g>
				<path style="fill:#4D4D4D;" d="M169.107,288.737c0.688-1.537,1.62-2.971,2.737-4.274c1.129-1.281,2.477-2.472,4.173-3.172
					c0.842-0.349,1.767-0.569,2.715-0.591c0.948-0.013,1.897,0.177,2.775,0.511c1.757,0.708,3.161,1.888,4.326,3.273
					c1.188,1.379,1.991,3.194,2.129,5.075c0.144,1.886-0.394,3.735-1.266,5.29c-0.882,1.564-2.093,2.878-3.478,3.923
					c-1.389,1.026-2.965,1.84-4.641,2.11c1.521-0.724,2.834-1.729,3.959-2.889c1.124-1.155,2.071-2.47,2.706-3.886
					c0.646-1.409,0.956-2.926,0.798-4.379c-0.13-1.461-0.798-2.815-1.736-4.001c-0.952-1.188-2.178-2.214-3.494-2.841
					c-1.336-0.591-2.833-0.679-4.284-0.214c-1.447,0.469-2.819,1.357-4.043,2.429C171.254,286.175,170.129,287.406,169.107,288.737z
					"/>
			</g>
			<g>
				<path style="fill:#FCC858;" d="M119.675,375.572c-0.078,2.531,0.599,5.077,2.052,7.096c1.408,2.014,3.639,3.536,6.059,3.621
					c2.405,0.067,4.77-1.046,6.483-2.765c1.699-1.71,2.933-4.016,2.944-6.409c0.09-2.378-1.156-4.696-2.928-6.327
					c-1.761-1.639-4.228-2.656-6.585-2.186c-2.359,0.46-4.295,2.401-5.183,4.688c-0.962,2.289-0.926,4.956-0.038,7.33
					c-1.1-2.29-1.273-5.044-0.42-7.504c0.841-2.435,2.819-4.634,5.478-5.265c1.31-0.317,2.71-0.209,3.966,0.235
					c1.263,0.436,2.409,1.147,3.393,2.028c1.943,1.748,3.38,4.281,3.315,7.023c-0.057,2.724-1.448,5.205-3.308,7.038
					c-1.872,1.819-4.47,3.08-7.165,2.879c-2.707-0.203-5.029-1.952-6.416-4.113C119.944,380.741,119.373,378.093,119.675,375.572z"
					/>
			</g>
			<g>
				<path style="fill:#FCC858;" d="M186.35,331.818c-2.513-0.312-5.111,0.126-7.256,1.387c-2.135,1.215-3.857,3.296-4.166,5.698
					c-0.289,2.388,0.6,4.847,2.153,6.711c1.546,1.85,3.727,3.292,6.109,3.524c2.359,0.31,4.783-0.716,6.571-2.33
					c1.795-1.602,3.036-3.964,2.786-6.355c-0.24-2.391-1.993-4.499-4.188-5.594c-2.19-1.169-4.849-1.381-7.295-0.716
					c2.382-0.883,5.14-0.801,7.511,0.276c2.346,1.063,4.354,3.236,4.736,5.942c0.195,1.334-0.042,2.718-0.6,3.928
					c-0.551,1.217-1.365,2.293-2.334,3.191c-1.921,1.773-4.575,2.969-7.299,2.651c-2.707-0.309-5.049-1.923-6.701-3.945
					c-1.638-2.033-2.653-4.736-2.204-7.401c0.452-2.677,2.408-4.827,4.689-6.008C181.179,331.607,183.868,331.284,186.35,331.818z"
					/>
			</g>
			<g>
				<path style="fill:#FCC858;" d="M125.075,377.384c1.198,0.77,2.289,1.654,3.357,2.562l-0.664,0.068
					c0.399-0.637,0.829-1.247,1.263-1.857c0.449-0.599,0.89-1.204,1.377-1.774c0.478-0.578,0.976-1.141,1.513-1.673
					c0.535-0.526,1.098-1.062,1.775-1.42c-0.492,0.572-0.876,1.203-1.305,1.81l-1.261,1.834c-0.851,1.215-1.724,2.418-2.639,3.587
					l-0.328,0.419l-0.336-0.352C126.858,379.573,125.913,378.535,125.075,377.384z"/>
			</g>
		</g>
	</g>
	<path style="opacity:0.23;fill:#4C649E;" d="M318.497,148.222c2.62,1.404,5.183,2.898,7.69,4.475
		c3.608-1.333,9.544-4.203,15.706-7.985c-11.57-8.339-24.428-15-38.223-19.622C309.028,133.792,314.675,142.747,318.497,148.222z"/>
	<g>
		<path style="fill:#FFFFFF;" d="M298.389,102.52c0,0,31.092,52.501,34.211,53.252c3.118,0.75,40.259-17.259,41.868-33.292
			c0,0-7.253-5.751-11.642-11.836c-4.389-6.085-24.058-37.114-24.058-37.114L298.389,102.52z"/>
		<g>
			<path style="fill:#ABBAC2;" d="M369.426,129.437c0.059-1.676,0.091-3.256-0.044-4.841c-0.05-0.791-0.15-1.577-0.279-2.366
				c-0.113-0.796-0.307-1.574-0.445-2.414c0.516,0.664,0.935,1.416,1.201,2.22c0.295,0.797,0.448,1.64,0.52,2.485
				c0.058,0.847,0.03,1.7-0.127,2.532C370.102,127.882,369.856,128.704,369.426,129.437z"/>
		</g>
		<g>
			<g>
				<path style="fill:#ABBAC2;" d="M308.582,106.434l3.668-2.55l3.694-2.502l7.385-4.992c2.471-1.649,4.906-3.345,7.345-5.037
					c2.428-1.707,4.837-3.438,7.118-5.356c-0.51,0.541-1.022,1.087-1.556,1.609l-1.642,1.525c-1.139,0.963-2.286,1.921-3.461,2.84
					c-2.344,1.847-4.778,3.574-7.243,5.247c-2.477,1.657-4.973,3.284-7.532,4.81C313.805,103.563,311.232,105.064,308.582,106.434z"
					/>
			</g>
			<g>
				<path style="fill:#ABBAC2;" d="M312.779,111.973l3.668-2.55l3.694-2.501l7.385-4.992c2.471-1.649,4.906-3.345,7.345-5.037
					c2.428-1.707,4.837-3.438,7.118-5.356c-0.51,0.541-1.022,1.087-1.556,1.609l-1.642,1.525c-1.139,0.963-2.286,1.921-3.461,2.84
					c-2.344,1.847-4.778,3.574-7.243,5.247c-2.477,1.657-4.973,3.284-7.532,4.81C318.003,109.102,315.429,110.603,312.779,111.973z"
					/>
			</g>
			<g>
				<path style="fill:#ABBAC2;" d="M316.977,117.512l3.668-2.55l3.694-2.501l7.385-4.993c2.471-1.649,4.906-3.345,7.345-5.037
					c2.428-1.707,4.837-3.438,7.118-5.356c-0.51,0.541-1.022,1.087-1.557,1.609l-1.642,1.525c-1.139,0.963-2.286,1.921-3.461,2.84
					c-2.344,1.847-4.778,3.574-7.243,5.247c-2.477,1.657-4.973,3.284-7.532,4.81C322.2,114.641,319.627,116.142,316.977,117.512z"/>
			</g>
			<g>
				<path style="fill:#ABBAC2;" d="M321.175,123.05l3.668-2.55l3.694-2.501l7.385-4.992c2.471-1.649,4.906-3.345,7.345-5.037
					c2.428-1.707,4.837-3.438,7.118-5.356c-0.51,0.541-1.022,1.087-1.557,1.609l-1.642,1.525c-1.139,0.963-2.286,1.921-3.461,2.84
					c-2.344,1.847-4.778,3.574-7.243,5.247c-2.477,1.657-4.973,3.284-7.532,4.81C326.398,120.18,323.824,121.681,321.175,123.05z"/>
			</g>
			<g>
				<path style="fill:#ABBAC2;" d="M325.372,128.589l3.668-2.55l3.694-2.502l7.385-4.992c2.471-1.649,4.906-3.345,7.345-5.037
					c2.428-1.707,4.837-3.438,7.118-5.356c-0.51,0.541-1.022,1.087-1.556,1.609l-1.642,1.525c-1.139,0.963-2.286,1.921-3.461,2.84
					c-2.345,1.847-4.778,3.574-7.243,5.247c-2.477,1.657-4.973,3.284-7.532,4.81C330.595,125.719,328.022,127.22,325.372,128.589z"
					/>
			</g>
			<g>
				<path style="fill:#ABBAC2;" d="M329.57,134.128l3.668-2.55l3.694-2.501l7.385-4.992c2.471-1.649,4.906-3.345,7.345-5.037
					c2.428-1.707,4.837-3.438,7.118-5.356c-0.51,0.541-1.022,1.087-1.556,1.609l-1.642,1.525c-1.139,0.963-2.286,1.921-3.461,2.84
					c-2.344,1.847-4.778,3.574-7.243,5.247c-2.477,1.657-4.973,3.284-7.532,4.81C334.793,131.257,332.22,132.758,329.57,134.128z"/>
			</g>
			<g>
				<path style="fill:#ABBAC2;" d="M333.768,139.667l3.668-2.55l3.694-2.502l7.385-4.992c2.47-1.649,4.906-3.345,7.345-5.037
					c2.428-1.707,4.837-3.438,7.118-5.356c-0.51,0.541-1.022,1.087-1.557,1.609l-1.642,1.525c-1.139,0.963-2.286,1.921-3.461,2.84
					c-2.344,1.847-4.778,3.574-7.243,5.247c-2.477,1.657-4.973,3.284-7.532,4.809C338.991,136.796,336.417,138.297,333.768,139.667z
					"/>
			</g>
		</g>
	</g>
</g>
</svg>
