<svg width="945" height="496" viewBox="0 0 945 496" fill="none" xmlns="http://www.w3.org/2000/svg">
<g clip-path="url(#clip0_3394_1039)">
<rect width="945" height="495" transform="translate(0 0.485596)" fill="#F8F8F8"/>
<circle cx="903.41" cy="289.33" r="68.8013" fill="#BCBCBC"/>
<circle cx="819.015" cy="358.132" r="84.3947" fill="#BCBCBC"/>
<circle cx="668.586" cy="324.476" r="84.3947" fill="#BCBCBC"/>
<circle cx="163.727" cy="344.516" r="97.3971" fill="#BCBCBC"/>
<circle cx="301.851" cy="412.8" r="120.016" fill="#BCBCBC"/>
<circle cx="39.685" cy="267.427" r="102.448" fill="#BCBCBC"/>
<circle cx="903.41" cy="424.599" r="137.528" fill="#E3E3E3"/>
<circle cx="745.265" cy="479.644" r="126.089" fill="#E3E3E3"/>
<circle cx="180.756" cy="472.055" r="82.5317" fill="#E3E3E3"/>
<circle cx="296.859" cy="481.781" r="58.3135" fill="#E3E3E3"/>
<circle cx="40.3257" cy="389.523" r="131.2" fill="#E3E3E3"/>
<rect x="321.888" y="100.313" width="341.298" height="418.379" rx="14.2287" transform="rotate(4.48912 321.888 100.313)" fill="black"/>
<rect x="305.409" y="77.0962" width="377.79" height="68.6891" rx="15.75" transform="rotate(4.48912 305.409 77.0962)" fill="#3D3D3D"/>
<rect x="298.566" y="164.25" width="377.79" height="68.6891" rx="15.75" transform="rotate(4.48912 298.566 164.25)" fill="#3D3D3D"/>
<rect x="291.724" y="251.405" width="377.79" height="68.6891" rx="15.75" transform="rotate(4.48912 291.724 251.405)" fill="#3D3D3D"/>
<rect x="284.881" y="338.559" width="377.79" height="68.6891" rx="15.75" transform="rotate(4.48912 284.881 338.559)" fill="#3D3D3D"/>
<rect x="278.038" y="425.713" width="377.79" height="68.6891" rx="15.75" transform="rotate(4.48912 278.038 425.713)" fill="#3D3D3D"/>
<path d="M365.094 144.464C365.571 138.394 370.878 133.859 376.949 134.336L480.933 142.499C487.003 142.976 491.537 148.283 491.061 154.353L490.576 160.534L364.609 150.645L365.094 144.464Z" fill="black"/>
<path d="M358.252 231.618C358.729 225.548 364.036 221.013 370.106 221.49L474.09 229.654C480.16 230.13 484.695 235.438 484.218 241.508L483.733 247.688L357.767 237.799L358.252 231.618Z" fill="black"/>
<path d="M351.409 318.772C351.886 312.702 357.193 308.168 363.264 308.644L467.247 316.808C473.318 317.285 477.852 322.592 477.376 328.662L476.89 334.843L350.924 324.953L351.409 318.772Z" fill="black"/>
<path d="M344.567 405.927C345.043 399.856 350.351 395.322 356.421 395.798L460.405 403.962C466.475 404.439 471.01 409.746 470.533 415.816L470.048 421.997L344.082 412.107L344.567 405.927Z" fill="black"/>
<path d="M650.817 136.445C651.498 137.872 651.366 139.554 650.471 140.857L645.041 148.762C644.145 150.065 642.623 150.791 641.046 150.668L631.486 149.917C629.909 149.793 628.519 148.838 627.838 147.411L623.708 138.756C623.027 137.329 623.159 135.647 624.054 134.344L629.484 126.439C630.38 125.136 631.902 124.409 633.479 124.533L643.039 125.284C644.616 125.408 646.006 126.363 646.687 127.79L650.817 136.445Z" fill="#FF7059"/>
<path d="M643.975 223.599C644.656 225.026 644.524 226.708 643.628 228.011L638.198 235.916C637.303 237.219 635.78 237.946 634.204 237.822L624.643 237.071C623.067 236.948 621.676 235.992 620.995 234.565L616.865 225.91C616.184 224.483 616.316 222.801 617.211 221.498L622.642 213.594C623.537 212.29 625.06 211.564 626.636 211.688L636.197 212.438C637.773 212.562 639.164 213.517 639.844 214.944L643.975 223.599Z" fill="#FF7059"/>
<path d="M637.132 310.754C637.813 312.181 637.681 313.863 636.786 315.166L631.355 323.07C630.46 324.373 628.938 325.1 627.361 324.976L617.801 324.226C616.224 324.102 614.834 323.147 614.153 321.72L610.023 313.065C609.342 311.638 609.474 309.956 610.369 308.652L615.799 300.748C616.695 299.445 618.217 298.718 619.793 298.842L629.354 299.592C630.93 299.716 632.321 300.672 633.002 302.099L637.132 310.754Z" fill="#FF7059"/>
<path d="M630.29 397.908C630.971 399.335 630.839 401.017 629.943 402.32L624.513 410.224C623.618 411.528 622.095 412.254 620.519 412.131L610.958 411.38C609.382 411.256 607.991 410.301 607.31 408.874L603.18 400.219C602.499 398.792 602.631 397.11 603.526 395.807L608.957 387.902C609.852 386.599 611.375 385.872 612.951 385.996L622.512 386.747C624.088 386.871 625.478 387.826 626.159 389.253L630.29 397.908Z" fill="#FF7059"/>
<path d="M623.447 485.062C624.128 486.489 623.996 488.171 623.101 489.474L617.671 497.379C616.775 498.682 615.253 499.409 613.676 499.285L604.116 498.534C602.539 498.411 601.149 497.455 600.468 496.028L596.338 487.373C595.657 485.946 595.789 484.264 596.684 482.961L602.114 475.057C603.01 473.753 604.532 473.027 606.109 473.151L615.669 473.901C617.246 474.025 618.636 474.98 619.317 476.407L623.447 485.062Z" fill="#FF7059"/>
<rect x="342.532" y="108.262" width="169.343" height="12.3607" rx="6.18037" transform="rotate(4.48912 342.532 108.262)" fill="#BCBCBC"/>
<rect x="342.532" y="108.262" width="101.541" height="12.3607" rx="6.18037" transform="rotate(4.48912 342.532 108.262)" fill="#FF7059"/>
<rect x="335.69" y="195.416" width="169.343" height="12.3607" rx="6.18037" transform="rotate(4.48912 335.69 195.416)" fill="#BCBCBC"/>
<rect x="335.69" y="195.416" width="143.562" height="12.3607" rx="6.18037" transform="rotate(4.48912 335.69 195.416)" fill="#FF7059"/>
<rect x="328.847" y="282.57" width="169.343" height="12.3607" rx="6.18037" transform="rotate(4.48912 328.847 282.57)" fill="#BCBCBC"/>
<rect x="328.847" y="282.57" width="40.4341" height="12.3607" rx="6.18037" transform="rotate(4.48912 328.847 282.57)" fill="#FF7059"/>
<rect x="322.005" y="369.725" width="169.343" height="12.3607" rx="6.18037" transform="rotate(4.48912 322.005 369.725)" fill="#BCBCBC"/>
<rect x="322.005" y="369.725" width="93.7713" height="12.3607" rx="6.18037" transform="rotate(4.48912 322.005 369.725)" fill="#FF7059"/>
<rect x="315.162" y="456.879" width="169.343" height="12.3607" rx="6.18037" transform="rotate(4.48912 315.162 456.879)" fill="#BCBCBC"/>
<rect x="315.162" y="456.879" width="131.377" height="12.3607" rx="6.18037" transform="rotate(4.48912 315.162 456.879)" fill="#FF7059"/>
<path fill-rule="evenodd" clip-rule="evenodd" d="M121.669 453.567C120.534 454.792 121.642 456.657 123.298 456.445C136.209 454.798 149.689 456.051 162.806 460.653C175.924 465.255 187.232 472.698 196.284 482.051C197.445 483.251 199.475 482.487 199.354 480.822C198.101 463.543 186.839 447.816 169.45 441.716C152.061 435.615 133.442 440.859 121.669 453.567Z" fill="#BCBCBC"/>
<path fill-rule="evenodd" clip-rule="evenodd" d="M87.7386 382.087C88.7858 383.824 87.0077 385.767 85.0901 385.107C70.143 379.96 53.8021 378.122 37.0659 380.356C20.3298 382.59 5.04334 388.651 -8.03014 397.538C-9.70741 398.678 -11.9331 397.269 -11.3782 395.319C-5.62175 375.08 11.654 359.157 33.8405 356.195C56.0269 353.233 76.8746 364.067 87.7386 382.087Z" fill="#BCBCBC"/>
<path fill-rule="evenodd" clip-rule="evenodd" d="M885.134 445.863C885.627 448.051 883.083 449.471 881.3 448.109C867.406 437.493 850.895 429.865 832.548 426.372C814.202 422.88 796.043 423.91 779.22 428.679C777.062 429.291 775.217 427.036 776.48 425.181C789.581 405.945 813.269 395.257 837.59 399.887C861.911 404.516 880.015 423.159 885.134 445.863Z" fill="#BCBCBC"/>
<path d="M201.606 88.3911C203.091 82.9703 209.877 81.1839 213.835 85.1717L274.256 146.052C278.223 150.049 276.375 156.845 270.931 158.278L187.832 180.154C182.389 181.587 177.439 176.58 178.928 171.147L201.606 88.3911Z" fill="#FF7059"/>
<path d="M209.754 119.499C208.899 116.246 210.849 112.913 214.109 112.054C217.369 111.196 220.705 113.138 221.56 116.391L225.761 132.381C226.616 135.634 224.666 138.968 221.406 139.826C218.146 140.684 214.81 138.742 213.955 135.489L209.754 119.499Z" fill="white"/>
<path d="M230.184 149.212C231.039 152.465 229.089 155.798 225.829 156.657C222.569 157.515 219.233 155.573 218.378 152.32C217.523 149.066 219.473 145.733 222.733 144.875C225.993 144.017 229.329 145.958 230.184 149.212Z" fill="white"/>
<path d="M784.967 114.775C790.433 110.009 799.003 112.94 800.412 120.056L821.925 228.701C823.338 235.834 816.501 241.819 809.627 239.468L704.679 203.579C697.805 201.229 696.056 192.308 701.533 187.531L784.967 114.775Z" fill="#FF7059"/>
<path d="M771.529 154.043C772.931 149.934 777.406 147.745 781.523 149.153C785.64 150.561 787.841 155.033 786.439 159.142L779.546 179.336C778.143 183.444 773.668 185.634 769.551 184.226C765.434 182.818 763.233 178.346 764.636 174.237L771.529 154.043Z" fill="white"/>
<path d="M772.29 200.592C770.887 204.701 766.413 206.89 762.295 205.482C758.178 204.074 755.977 199.602 757.38 195.493C758.782 191.384 763.257 189.195 767.374 190.603C771.492 192.011 773.693 196.483 772.29 200.592Z" fill="white"/>
</g>
<defs>
<clipPath id="clip0_3394_1039">
<rect width="945" height="495" fill="white" transform="translate(0 0.485596)"/>
</clipPath>
</defs>
</svg>
