<svg xmlns="http://www.w3.org/2000/svg" xmlns:xlink="http://www.w3.org/1999/xlink" xml:space="preserve" width="1599.993" height="836" viewBox="0 0 423.331 221.192"><defs><pattern xlink:href="#a" id="g" patternTransform="scale(.38259)rotate(45 23.28 -401.473)" preserveAspectRatio="xMidYMid"/><pattern xlink:href="#b" id="a" patternTransform="scale(.38259)rotate(45 -14.829 -385.688)" preserveAspectRatio="xMidYMid"/><pattern xlink:href="#c" id="b" x="0" y="0" patternTransform="rotate(45)scale(.4)" preserveAspectRatio="xMidYMid"/><pattern xlink:href="#d" id="f" patternTransform="rotate(-135 399.28 -230.962)scale(.83046)" preserveAspectRatio="xMidYMid"/><pattern xlink:href="#c" id="d" x="0" y="0" patternTransform="rotate(-135 348.65 -189.107)scale(.43433)" preserveAspectRatio="xMidYMid"/><pattern id="c" width="3" height="1" patternTransform="scale(2)" patternUnits="userSpaceOnUse" preserveAspectRatio="xMidYMid" style="fill:#4ea8f1"><path d="M0-.5h1v2H0z" style="stroke:none"/></pattern></defs><path d="M0 0h423.332v221.192H0Z" style="fill:#fff;stroke:none;stroke-width:.529167"/><g transform="translate(85.348 -38.312)"><circle cx="-49.62" cy="107.273" r="2.249" style="fill:#4ea8f1;fill-opacity:1;stroke:none;stroke-width:.919769;stroke-linejoin:miter;stroke-miterlimit:2;stroke-dasharray:none;stroke-dashoffset:0;stroke-opacity:1;paint-order:stroke fill markers"/><circle cx="-42.537" cy="107.273" r="2.249" style="fill:#4ea8f1;fill-opacity:1;stroke:none;stroke-width:.919769;stroke-linejoin:miter;stroke-miterlimit:2;stroke-dasharray:none;stroke-dashoffset:0;stroke-opacity:1;paint-order:stroke fill markers"/><path d="m-57.28 113.913 105.24-.029M-53.455 100.97h97.59a3.824 3.824 0 0 1 3.825 3.824v87.414a3.824 3.824 0 0 1-3.825 3.824h-97.59a3.824 3.824 0 0 1-3.824-3.824v-87.414a3.824 3.824 0 0 1 3.824-3.824z" style="display:inline;fill:none;fill-opacity:1;stroke:#4ea8f1;stroke-width:1.52947;stroke-linecap:butt;stroke-linejoin:miter;stroke-dasharray:none;stroke-opacity:1"/><path d="M-41.69 122.9h74.053a3.824 3.824 0 0 1 3.824 3.824v11.849a3.824 3.824 0 0 1-3.824 3.824H-41.69a3.824 3.824 0 0 1-3.824-3.824v-11.85a3.824 3.824 0 0 1 3.824-3.823zm0 34.042h26.378a3.824 3.824 0 0 1 3.824 3.824v18.77a3.824 3.824 0 0 1-3.824 3.824h-26.375a3.824 3.824 0 0 1-3.824-3.824v-18.77a3.824 3.824 0 0 1 3.824-3.824z" style="display:inline;fill:#fff;fill-opacity:1;stroke:#4ca3e9;stroke-width:2.36608;stroke-linejoin:miter;stroke-miterlimit:2;stroke-dasharray:none;stroke-dashoffset:0;stroke-opacity:1;paint-order:stroke fill markers"/><path d="M37.13 159.771H-7.836m44.966 3.754H-7.836m44.966 3.757H-7.836m44.966 3.757H-7.836m44.966 3.755H-7.836m44.966 3.758H-7.836m44.966 3.755H-7.836" style="display:inline;fill:none;stroke:#d0e7f4;stroke-width:1.51768;stroke-linecap:butt;stroke-linejoin:miter;stroke-dasharray:none;stroke-opacity:1"/><path d="M-46.451 147.674h83.58" style="display:inline;fill:#7dc4f4;fill-opacity:1;stroke:#d0e7f4;stroke-width:1.51768;stroke-linecap:butt;stroke-linejoin:miter;stroke-dasharray:none;stroke-opacity:1"/><path d="M-46.451 151.43h83.58" style="display:inline;fill:none;stroke:#d0e7f4;stroke-width:1.51768;stroke-linecap:butt;stroke-linejoin:miter;stroke-dasharray:none;stroke-opacity:1"/><path d="M31.497 123.871c-24.537.101-49.088-.057-73.623.12-2.232.291-2.61 2.916-2.383 4.738.176 3.706-.361 7.534.352 11.157 1.402 2.167 4.214 1.373 6.356 1.501 23.546 0 47.093.033 70.64-.053 2.193-.402 2.587-2.954 2.339-4.8-.138-3.7.325-7.504-.32-11.14-.65-1.19-2.084-1.592-3.361-1.523" style="display:inline;fill:url(#f);fill-opacity:1;stroke:none;stroke-width:.214642;stroke-miterlimit:2;stroke-dasharray:none;stroke-dashoffset:9.92504;stroke-opacity:1;paint-order:fill markers stroke"/></g><path d="m80.686 94.334 122.796-.07a7.51 7.51 0 0 1 7.53 5.24" style="fill:none;stroke:#fff;stroke-width:2.64583;stroke-linecap:round;stroke-linejoin:miter;stroke-dasharray:none;stroke-dashoffset:0;stroke-opacity:1"/><circle cx="80.686" cy="94.334" r="2.158" style="fill:#4ea8f1;fill-opacity:1;stroke-width:.264583;stroke-linecap:round;stroke-miterlimit:10;stroke-dashoffset:12.5678;paint-order:fill markers stroke"/><path d="M80.686 94.334h275.35a7.927 7.927 0 0 1 7.927 7.927v55.487" style="fill:none;stroke:#4ea8f1;stroke-width:1.32292;stroke-linecap:round;stroke-linejoin:miter;stroke-dasharray:5.29167,5.29167;stroke-dashoffset:0;stroke-opacity:1"/><text xml:space="preserve" x="248.855" y="86.154" style="font-size:37.221px;line-height:1;font-family:&quot;Segoe UI&quot;;-inkscape-font-specification:&quot;Segoe UI&quot;;fill:#4ea8f1;fill-opacity:1;stroke-width:1.55087"><tspan x="248.855" y="86.154" style="font-style:normal;font-variant:normal;font-weight:700;font-stretch:normal;line-height:1;font-family:&quot;Segoe UI&quot;;-inkscape-font-specification:&quot;Segoe UI Bold&quot;;text-align:center;text-anchor:middle;fill:#4ea8f1;fill-opacity:1;stroke-width:1.55087"><tspan style="font-size:21.8884px;line-height:1;text-align:center;text-anchor:middle;stroke-width:1.55087">STATUS CODE</tspan> </tspan></text><text xml:space="preserve" x="190.406" y="148.702" style="font-size:63.6966px;line-height:1.25;font-family:&quot;Segoe UI&quot;;-inkscape-font-specification:&quot;Segoe UI&quot;;fill:#4ea8f1;fill-opacity:1;stroke-width:.663508"><tspan x="190.406" y="148.702" style="font-style:normal;font-variant:normal;font-weight:700;font-stretch:normal;font-size:63.6966px;font-family:&quot;Segoe UI&quot;;-inkscape-font-specification:&quot;Segoe UI Bold&quot;;fill:#4ea8f1;fill-opacity:1;stroke-width:.663508">503</tspan></text><circle cx="363.965" cy="161.821" r="37.427" style="fill:#fff;fill-opacity:1;stroke:#4ea8f1;stroke-width:1.32292;stroke-linecap:round;stroke-linejoin:bevel;stroke-miterlimit:0;stroke-dasharray:3.96875,3.96875;stroke-dashoffset:15.434;stroke-opacity:1;paint-order:normal"/><text xml:space="preserve" x="366.22" y="184.485" style="font-size:6.35001px;line-height:1.25;font-family:&quot;Segoe UI&quot;;-inkscape-font-specification:&quot;Segoe UI&quot;;stroke-width:.264584"/><path d="M457.146 180.88h8.968v54.962h-8.968zM516.65 180.88h8.968v54.962h-8.968z" style="fill:#4ea8f1;stroke:#4ea8f1;stroke-width:5.29167;stroke-linecap:round;stroke-linejoin:round;stroke-miterlimit:0" transform="translate(62.248 33.875)scale(.61406)"/><path d="M145.755-390.272h8.578v52.569h-8.578zM157.833-390.272h8.578v52.569h-8.578z" style="fill:#fff;stroke:#4ea8f1;stroke-width:1.26532;stroke-linecap:round;stroke-linejoin:round;stroke-miterlimit:0;stroke-dasharray:none" transform="rotate(90)"/><path d="M338.717 165.397h50.543v-6.551h-50.543z" style="fill:url(#a);fill-opacity:1;stroke:none;stroke-width:1.26532;stroke-linecap:round;stroke-linejoin:round;stroke-miterlimit:0;stroke-dasharray:none"/><path d="M338.717 153.32h50.543v-6.552h-50.543z" style="fill:url(#g);fill-opacity:1;stroke:none;stroke-width:1.26532;stroke-linecap:round;stroke-linejoin:round;stroke-miterlimit:0;stroke-dasharray:none"/><ellipse cx="363.988" cy="156.128" rx="7.835" ry="8.65" style="fill:#fff;stroke:#4ea8f1;stroke-width:.52916746;stroke-linecap:round;stroke-linejoin:round;stroke-miterlimit:0;stroke-dasharray:none;stroke-opacity:1"/><circle cx="363.988" cy="156.128" r=".49" style="fill:#4ea8f1;fill-opacity:1;stroke:none;stroke-width:.581756;stroke-linecap:round;stroke-linejoin:round;stroke-miterlimit:0;stroke-dasharray:none;stroke-opacity:1"/><path d="M363.988 156.033v-3.693" style="fill:none;stroke:#4ea8f1;stroke-width:.52916746;stroke-linecap:round;stroke-linejoin:miter;stroke-dasharray:none;stroke-opacity:1"/><path d="M363.988 156.128h4.942" style="fill:none;stroke:#4ea8f1;stroke-width:.26458373;stroke-linecap:round;stroke-linejoin:miter;stroke-dasharray:none;stroke-opacity:1"/><path d="M363.988 147.479v.796M371.026 156.128h.797M356.153 156.128h.797M363.988 163.981v.797" style="fill:none;stroke:#4ea8f1;stroke-width:.26458373;stroke-linecap:butt;stroke-linejoin:miter;stroke-dasharray:none;stroke-opacity:1"/><path d="M457.146 180.88h8.968v54.962h-8.968zM516.65 180.88h8.968v54.962h-8.968z" style="fill:#4ea8f1;stroke:#4ea8f1;stroke-width:5.29167;stroke-linecap:round;stroke-linejoin:round;stroke-miterlimit:0" transform="translate(62.248 33.875)scale(.61406)"/><path d="M145.755-390.272h8.578v52.569h-8.578zM157.833-390.272h8.578v52.569h-8.578z" style="fill:#fff;stroke:#4ea8f1;stroke-width:1.26532;stroke-linecap:round;stroke-linejoin:round;stroke-miterlimit:0;stroke-dasharray:none" transform="rotate(90)"/><path d="M338.717 165.397h50.543v-6.551h-50.543z" style="fill:url(#a);fill-opacity:1;stroke:none;stroke-width:1.26532;stroke-linecap:round;stroke-linejoin:round;stroke-miterlimit:0;stroke-dasharray:none"/><path d="M338.717 153.32h50.543v-6.552h-50.543z" style="fill:url(#g);fill-opacity:1;stroke:none;stroke-width:1.26532;stroke-linecap:round;stroke-linejoin:round;stroke-miterlimit:0;stroke-dasharray:none"/><ellipse cx="363.988" cy="156.128" rx="7.835" ry="8.65" style="fill:#fff;stroke:#4ea8f1;stroke-width:.52916746;stroke-linecap:round;stroke-linejoin:round;stroke-miterlimit:0;stroke-dasharray:none;stroke-opacity:1"/><circle cx="363.988" cy="156.128" r=".49" style="fill:#4ea8f1;fill-opacity:1;stroke:none;stroke-width:.581756;stroke-linecap:round;stroke-linejoin:round;stroke-miterlimit:0;stroke-dasharray:none;stroke-opacity:1"/><path d="M363.988 156.033v-3.693" style="fill:none;stroke:#4ea8f1;stroke-width:.52916746;stroke-linecap:round;stroke-linejoin:miter;stroke-dasharray:none;stroke-opacity:1"/><path d="M363.988 156.128h4.942" style="fill:none;stroke:#4ea8f1;stroke-width:.26458373;stroke-linecap:round;stroke-linejoin:miter;stroke-dasharray:none;stroke-opacity:1"/><path d="M363.988 147.479v.796M371.026 156.128h.797M356.153 156.128h.797M363.988 163.981v.797" style="fill:none;stroke:#4ea8f1;stroke-width:.26458373;stroke-linecap:butt;stroke-linejoin:miter;stroke-dasharray:none;stroke-opacity:1"/></svg>